<svg width="212" height="45" viewBox="0 0 212 45" fill="none" xmlns="http://www.w3.org/2000/svg">
<path d="M0 2.71669H9.91086V42.7984H0V2.71669Z" fill="white"/>
<path d="M14.4233 11.3629V2.71669H46.3455V11.3629H35.2246V42.7984H25.4866V11.3629H14.4233Z" fill="white"/>
<path d="M58.0166 22.8721V18.6349H64.5278C65.6418 18.6349 66.5829 18.4631 67.3512 18.1195C68.1579 17.776 68.7725 17.2988 69.1951 16.688C69.6176 16.0391 69.8289 15.2566 69.8289 14.3404C69.8289 12.9662 69.368 11.9355 68.446 11.2484C67.5241 10.5613 66.218 10.2177 64.5278 10.2177H60.4943V35.2974H65.4497C66.7174 35.2974 67.8506 35.1447 68.8494 34.8394C69.8481 34.4958 70.6356 33.9614 71.2118 33.2361C71.8265 32.4726 72.1338 31.4419 72.1338 30.1441C72.1338 29.3043 71.9609 28.579 71.6152 27.9682C71.2694 27.3574 70.7893 26.8612 70.1747 26.4794C69.56 26.0977 68.8494 25.8305 68.0427 25.6778C67.2744 25.4869 66.4101 25.3915 65.4497 25.3915H58.0166V20.1236H66.5445C68.5036 20.1236 70.4051 20.3336 72.249 20.7535C74.0929 21.1734 75.7639 21.8605 77.2621 22.8148C78.7602 23.731 79.9511 24.9143 80.8346 26.3649C81.7565 27.7773 82.2175 29.4951 82.2175 31.5183C82.2175 34.1904 81.5645 36.3472 80.2584 37.9886C78.9907 39.6301 77.1852 40.8516 74.842 41.6532C72.4987 42.4167 69.7329 42.7984 66.5445 42.7984H50.7563V2.71669H65.5649C68.3692 2.71669 70.8277 3.09842 72.9405 3.86188C75.0917 4.58717 76.7819 5.71328 78.0111 7.2402C79.2788 8.72895 79.9127 10.6185 79.9127 12.9089C79.9127 15.0084 79.2788 16.8026 78.0111 18.2913C76.7819 19.7801 75.0917 20.9253 72.9405 21.7269C70.8277 22.4904 68.3692 22.8721 65.5649 22.8721H58.0166Z" fill="white"/>
<path d="M94.5147 35.0684L95.2062 27.6819H115.201L115.835 35.0684H94.5147ZM105.059 17.4324L99.4125 30.3731L99.8735 32.4917L94.8604 42.7984H83.8548L105.059 0.197266L126.322 42.7984H115.258L110.418 32.8925L110.764 30.4304L105.059 17.4324Z" fill="white"/>
<path d="M159.209 2.71669H168.601V44.8025L140.713 20.2381V42.7984H131.378V0.712603L159.209 25.277V2.71669Z" fill="white"/>
<path d="M175.804 2.71669H185.888V42.7984H175.804V2.71669ZM199.602 2.71669H211.011L194.646 21.4979L211.875 42.7984H200.063L183.064 21.7842L199.602 2.71669Z" fill="white"/>
</svg>
