<svg width="758" height="703" viewBox="0 0 758 703" fill="none" xmlns="http://www.w3.org/2000/svg">
<g clip-path="url(#clip0_59_2639)">
<path d="M358.114 703H10.2854C4.6113 703 0 698.387 0 692.71V10.2903C0 4.6135 4.6113 0 10.2854 0H358.114C363.788 0 368.399 4.6135 368.399 10.2903V692.728C368.399 698.405 363.788 703.018 358.114 703.018V703ZM10.2854 0.450537C4.86348 0.450537 0.450322 4.8658 0.450322 10.2903V692.728C0.450322 698.152 4.86348 702.568 10.2854 702.568H358.114C363.536 702.568 367.949 698.152 367.949 692.728V10.2903C367.949 4.8658 363.536 0.450537 358.114 0.450537H10.2854Z" fill="#EBEBEB"/>
<path d="M747.715 703H399.886C394.212 703 389.601 698.387 389.601 692.71V10.2903C389.601 4.6135 394.212 0 399.886 0H747.715C753.389 0 758 4.6135 758 10.2903V692.728C758 698.405 753.389 703.018 747.715 703.018V703ZM399.886 0.450537C394.464 0.450537 390.051 4.8658 390.051 10.2903V692.728C390.051 698.152 394.464 702.568 399.886 702.568H747.715C753.137 702.568 757.55 698.152 757.55 692.728V10.2903C757.55 4.8658 753.137 0.450537 747.715 0.450537H399.886Z" fill="#EBEBEB"/>
<path d="M132.323 204.165L135.241 210.076L141.744 211.031L137.042 215.627L138.141 222.114L132.323 219.051L126.505 222.114L127.604 215.627L122.902 211.031L129.405 210.076L132.323 204.165Z" fill="#EBEBEB"/>
<path d="M715.31 482.129L718.228 488.04L724.731 488.977L720.029 493.573L721.128 500.06L715.31 496.997L709.492 500.06L710.59 493.573L705.889 488.977L712.392 488.04L715.31 482.129Z" fill="#F5F5F5"/>
<path d="M599.829 653.477L602.748 659.388L609.268 660.325L604.549 664.938L605.666 671.426L599.829 668.362L594.011 671.426L595.128 664.938L590.409 660.325L596.929 659.388L599.829 653.477Z" fill="#F5F5F5"/>
<path d="M335.67 99.4787L336.751 101.677L339.165 102.02C339.777 102.11 340.011 102.849 339.579 103.281L337.832 104.993L338.246 107.408C338.354 108.003 337.724 108.471 337.183 108.183L335.022 107.048L332.86 108.183C332.32 108.471 331.689 108.003 331.797 107.408L332.212 104.993L330.465 103.281C330.032 102.849 330.266 102.11 330.879 102.02L333.293 101.677L334.373 99.4787C334.644 98.9381 335.418 98.9381 335.688 99.4787H335.67Z" fill="#EBEBEB"/>
<path d="M38.1517 625.435L39.2325 627.633L41.6462 627.976C42.2586 628.066 42.4928 628.805 42.0605 629.237L40.3132 630.949L40.7275 633.364C40.8356 633.959 40.2052 634.428 39.6648 634.139L37.5032 633.004L35.3417 634.139C34.8013 634.428 34.1708 633.959 34.2789 633.364L34.6932 630.949L32.946 629.237C32.5137 628.805 32.7478 628.066 33.3603 627.976L35.774 627.633L36.8548 625.435C37.1249 624.894 37.8995 624.894 38.1697 625.435H38.1517Z" fill="#F5F5F5"/>
<path d="M86.7503 76.3205L87.8311 78.5191L90.2448 78.8616C90.8392 78.9517 91.0914 79.6905 90.6591 80.1231L88.9119 81.8351L89.3262 84.25C89.4342 84.8447 88.8038 85.3132 88.2634 85.0249L86.1019 83.8895L83.9403 85.0249C83.3999 85.3132 82.7695 84.8447 82.8775 84.25L83.2918 81.8351L81.5446 80.1231C81.1123 79.6905 81.3465 78.9517 81.9589 78.8616L84.3726 78.5191L85.4534 76.3205C85.7236 75.7799 86.4981 75.7799 86.7683 76.3205H86.7503Z" fill="#EBEBEB"/>
<path d="M83.8324 510.674C83.8324 511.99 82.7697 513.071 81.4367 513.071C80.1038 513.071 79.041 512.008 79.041 510.674C79.041 509.341 80.1038 508.277 81.4367 508.277C82.7697 508.277 83.8324 509.341 83.8324 510.674Z" fill="#EBEBEB"/>
<path d="M425.248 210.743C425.248 212.058 424.186 213.139 422.853 213.139C421.52 213.139 420.457 212.076 420.457 210.743C420.457 209.409 421.52 208.346 422.853 208.346C424.186 208.346 425.248 209.409 425.248 210.743Z" fill="#EBEBEB"/>
<path d="M301.014 78.3031C301.014 79.6187 299.951 80.7 298.618 80.7C297.285 80.7 296.223 79.6367 296.223 78.3031C296.223 76.9695 297.285 75.9062 298.618 75.9062C299.951 75.9062 301.014 76.9695 301.014 78.3031Z" fill="#F5F5F5"/>
<path d="M304.815 662.447C311.931 660.767 316.338 653.633 314.659 646.513C312.979 639.393 305.849 634.984 298.732 636.664C291.616 638.345 287.208 645.479 288.888 652.599C290.568 659.718 297.698 664.128 304.815 662.447Z" fill="#F0F0F0"/>
<path d="M297.213 641.816C294.403 641.816 291.791 642.717 289.665 644.267C288.963 645.889 288.566 647.673 288.566 649.548C288.566 656.864 294.493 662.775 301.806 662.775C304.274 662.775 306.597 662.091 308.579 660.901C308.579 660.901 308.579 660.895 308.579 660.883C309.569 659.045 310.128 656.954 310.128 654.72C310.128 647.601 304.346 641.816 297.213 641.816Z" fill="#E6E6E6"/>
<path d="M194.701 419.342H85.0928V369.837L194.701 239.47H247.155V372.648H274.336V419.36H247.155V459.854H194.701V419.36V419.342ZM194.701 372.63V304.437L136.772 372.63H194.701Z" fill="#8933F5" fill-opacity="0.8"/>
<path d="M293.088 350.626C293.088 309.447 300.491 280.613 315.316 264.159C330.14 247.706 352.71 239.47 383.044 239.47C397.617 239.47 409.577 241.272 418.944 244.858C428.292 248.462 435.93 253.13 441.838 258.897C447.746 264.664 452.394 270.719 455.798 277.081C459.203 283.442 461.923 290.849 463.994 299.319C468.029 315.484 470.046 332.334 470.046 349.869C470.046 389.192 463.4 417.954 450.106 436.192C436.813 454.43 413.918 463.531 381.405 463.531C363.176 463.531 348.459 460.629 337.237 454.808C326.015 448.987 316.793 440.481 309.606 429.236C304.382 421.252 300.329 410.349 297.411 396.491C294.511 382.65 293.052 367.35 293.052 350.59L293.088 350.626ZM352.764 350.77C352.764 378.361 355.196 397.212 360.078 407.304C364.959 417.396 372.02 422.46 381.279 422.46C387.385 422.46 392.681 420.315 397.166 416.026C401.651 411.737 404.948 404.961 407.073 395.698C409.199 386.435 410.244 372 410.244 352.392C410.244 323.63 407.812 304.293 402.93 294.381C398.049 284.469 390.736 279.531 380.991 279.531C371.246 279.531 363.86 284.577 359.429 294.688C354.998 304.798 352.782 323.486 352.782 350.77H352.764Z" fill="#8933F5" fill-opacity="0.8"/>
<path d="M598.298 419.342H488.689V369.837L598.298 239.47H650.751V372.648H677.933V419.36H650.751V459.854H598.298V419.36V419.342ZM598.298 372.63V304.437L540.368 372.63H598.298Z" fill="#8933F5" fill-opacity="0.8"/>
<g opacity="0.3">
<path d="M290.656 163.4C290.656 165.256 289.143 166.77 287.287 166.77C285.432 166.77 283.919 165.256 283.919 163.4C283.919 161.544 285.432 160.03 287.287 160.03C289.143 160.03 290.656 161.544 290.656 163.4Z" fill="#8933F5" fill-opacity="0.8"/>
<path d="M60.1091 292.848C61.4223 292.848 62.4868 291.783 62.4868 290.47C62.4868 289.156 61.4223 288.091 60.1091 288.091C58.796 288.091 57.7314 289.156 57.7314 290.47C57.7314 291.783 58.796 292.848 60.1091 292.848Z" fill="#8933F5" fill-opacity="0.8"/>
<path d="M452.952 640.249C454.833 640.249 456.357 638.724 456.357 636.843C456.357 634.961 454.833 633.437 452.952 633.437C451.072 633.437 449.548 634.961 449.548 636.843C449.548 638.724 451.072 640.249 452.952 640.249Z" fill="#8933F5" fill-opacity="0.8"/>
<path d="M534.803 501.664C536.116 501.664 537.18 500.599 537.18 499.285C537.18 497.971 536.116 496.906 534.803 496.906C533.489 496.906 532.425 497.971 532.425 499.285C532.425 500.599 533.489 501.664 534.803 501.664Z" fill="#8933F5" fill-opacity="0.8"/>
<path d="M692.74 73.2929C692.74 74.6085 691.677 75.6717 690.362 75.6717C689.047 75.6717 687.984 74.6085 687.984 73.2929C687.984 71.9773 689.047 70.9141 690.362 70.9141C691.677 70.9141 692.74 71.9773 692.74 73.2929Z" fill="#8933F5" fill-opacity="0.8"/>
<path d="M239.86 25.248C239.86 26.5635 238.797 27.6268 237.482 27.6268C236.167 27.6268 235.104 26.5635 235.104 25.248C235.104 23.9324 236.167 22.8691 237.482 22.8691C238.797 22.8691 239.86 23.9324 239.86 25.248Z" fill="#8933F5" fill-opacity="0.8"/>
<path d="M428.887 150.137C430.2 150.137 431.265 149.072 431.265 147.758C431.265 146.444 430.2 145.379 428.887 145.379C427.574 145.379 426.509 146.444 426.509 147.758C426.509 149.072 427.574 150.137 428.887 150.137Z" fill="#8933F5" fill-opacity="0.8"/>
</g>
<path d="M183.083 150.155C204.88 150.155 222.55 132.477 222.55 110.67C222.55 88.8626 204.88 71.1846 183.083 71.1846C161.287 71.1846 143.617 88.8626 143.617 110.67C143.617 132.477 161.287 150.155 183.083 150.155Z" fill="#8933F5" fill-opacity="0.8"/>
<path opacity="0.7" d="M183.083 150.155C204.88 150.155 222.55 132.477 222.55 110.67C222.55 88.8626 204.88 71.1846 183.083 71.1846C161.287 71.1846 143.617 88.8626 143.617 110.67C143.617 132.477 161.287 150.155 183.083 150.155Z" fill="white"/>
<path opacity="0.2" d="M169.484 80.8799C163.954 80.8799 158.694 82.0152 153.921 84.0697C147.526 91.08 143.617 100.433 143.617 110.669C143.617 132.475 161.288 150.136 183.065 150.136C188.613 150.136 193.909 149.001 198.701 146.929C205.059 139.9 208.932 130.583 208.932 120.365C208.932 98.5409 191.261 80.8799 169.466 80.8799H169.484Z" fill="#8933F5" fill-opacity="0.8"/>
<path opacity="0.2" d="M165.557 91.3143C165.557 93.3146 163.936 94.9186 161.954 94.9186C159.973 94.9186 158.352 93.2966 158.352 91.3143C158.352 89.3319 159.973 87.71 161.954 87.71C163.936 87.71 165.557 89.3319 165.557 91.3143Z" fill="#8933F5" fill-opacity="0.8"/>
<path opacity="0.2" d="M207.995 87.7107C207.995 89.7111 206.374 91.315 204.393 91.315C202.411 91.315 200.79 89.6931 200.79 87.7107C200.79 85.7284 202.411 84.1064 204.393 84.1064C206.374 84.1064 207.995 85.7284 207.995 87.7107Z" fill="#8933F5" fill-opacity="0.8"/>
<path opacity="0.2" d="M200.773 113.445C200.773 116.707 198.125 119.356 194.864 119.356C191.604 119.356 188.956 116.707 188.956 113.445C188.956 110.183 191.604 107.534 194.864 107.534C198.125 107.534 200.773 110.183 200.773 113.445Z" fill="#8933F5" fill-opacity="0.8"/>
<path opacity="0.2" d="M182.02 130.277C182.02 134.638 178.49 138.171 174.131 138.171C169.772 138.171 166.241 134.638 166.241 130.277C166.241 125.916 169.772 122.384 174.131 122.384C178.49 122.384 182.02 125.916 182.02 130.277Z" fill="#8933F5" fill-opacity="0.8"/>
<path d="M650.828 586.968C655.223 568.34 643.691 549.675 625.072 545.279C606.454 540.882 587.798 552.419 583.403 571.047C579.009 589.675 590.54 608.339 609.159 612.736C627.778 617.133 646.434 605.596 650.828 586.968Z" fill="#8933F5" fill-opacity="0.8"/>
<path opacity="0.3" d="M650.828 586.968C655.223 568.34 643.691 549.675 625.072 545.279C606.454 540.882 587.798 552.419 583.403 571.047C579.009 589.675 590.54 608.339 609.159 612.736C627.778 617.133 646.434 605.596 650.828 586.968Z" fill="white"/>
<path opacity="0.4" d="M638.989 552.161C635.837 551.206 632.486 550.701 629.01 550.701C609.88 550.701 594.371 566.218 594.371 585.357C594.371 596.205 599.343 605.865 607.142 612.227C610.294 613.182 613.645 613.686 617.121 613.686C636.251 613.686 651.76 598.17 651.76 579.031C651.76 568.182 646.789 558.505 638.989 552.161Z" fill="#8933F5" fill-opacity="0.8"/>
<path d="M584.05 589.303C547.069 606.712 574.647 620.138 626.758 601.396C674.997 584.041 693.352 562.163 650.265 568.939C652.481 578.148 592.065 601.702 584.05 589.285V589.303Z" fill="#8933F5" fill-opacity="0.8"/>
<path opacity="0.2" d="M638.556 239.47C590.119 272.215 527.417 315.394 510.106 419.342H506.414C523.256 316.656 583.671 272.341 632.125 239.47H638.556Z" fill="black"/>
<path d="M388.033 564.631C357.465 564.631 327.132 550.826 312.397 528.245C303.3 514.297 292.727 485.084 324.213 446.103L327.023 448.374C304.76 475.947 300.635 503.61 315.423 526.281C333.418 553.872 375.946 567.748 412.206 557.873C449.367 547.763 471.919 515.414 474.099 469.153C481.538 310.906 565.568 262.176 626.938 226.584C665.053 204.471 692.595 188.486 686.543 154.786C685.696 150.118 683.841 146.875 680.85 144.91C673.015 139.738 657.704 143.306 639.979 147.451C605.196 155.561 557.57 166.662 529.2 118.383L532.298 116.562C559.336 162.553 603.593 152.245 639.151 143.955C657.686 139.63 673.699 135.9 682.832 141.919C686.687 144.46 689.064 148.479 690.091 154.173C696.594 190.36 666.656 207.733 628.739 229.719C568.108 264.897 485.05 313.069 477.701 469.351C475.45 517.288 451.925 550.826 413.161 561.369C404.983 563.585 396.499 564.649 388.051 564.649L388.033 564.631Z" fill="#8933F5" fill-opacity="0.8"/>
<path opacity="0.2" d="M388.033 564.631C357.465 564.631 327.132 550.826 312.397 528.245C303.3 514.297 292.727 485.084 324.213 446.103L327.023 448.374C304.76 475.947 300.635 503.61 315.423 526.281C333.418 553.872 375.946 567.748 412.206 557.873C449.367 547.763 471.919 515.414 474.099 469.153C481.538 310.906 565.568 262.176 626.938 226.584C665.053 204.471 692.595 188.486 686.543 154.786C685.696 150.118 683.841 146.875 680.85 144.91C673.015 139.738 657.704 143.306 639.979 147.451C605.196 155.561 557.57 166.662 529.2 118.383L532.298 116.562C559.336 162.553 603.593 152.245 639.151 143.955C657.686 139.63 673.699 135.9 682.832 141.919C686.687 144.46 689.064 148.479 690.091 154.173C696.594 190.36 666.656 207.733 628.739 229.719C568.108 264.897 485.05 313.069 477.701 469.351C475.45 517.288 451.925 550.826 413.161 561.369C404.983 563.585 396.499 564.649 388.051 564.649L388.033 564.631Z" fill="white"/>
<path d="M492.04 75.69C504.396 75.4737 516.501 79.5286 516.501 79.5286C516.501 79.5286 536.243 113.355 538.657 121.104C537.828 128.745 524.931 141.27 524.931 141.27L492.021 75.69H492.04Z" fill="#8933F5" fill-opacity="0.8"/>
<path opacity="0.3" d="M492.04 75.69C504.396 75.4737 516.501 79.5286 516.501 79.5286C516.501 79.5286 536.243 113.355 538.657 121.104C537.828 128.745 524.931 141.27 524.931 141.27L492.021 75.69H492.04Z" fill="white"/>
<path d="M550.743 240.01C543.286 230.549 535.973 220.925 529.921 210.491C528.407 207.878 526.966 205.228 525.615 202.525C524.841 200.993 524.102 199.444 523.382 197.894C522.751 196.542 521.346 194.542 521.22 193.064C519.059 170.231 526.876 153.417 519.365 135.089L489.698 146.695C489.698 146.695 492.22 179.35 497.984 198.885C501.55 211.013 509.638 221.502 517.438 231.215C519.869 234.261 522.229 237.361 524.661 240.406C526.966 243.29 529.542 245.921 531.848 248.786C535.36 253.13 536.513 257.293 533.847 262.411C533.703 262.681 533.559 262.951 533.397 263.222C532.64 264.555 536.189 266.069 538.405 263.258C542.079 258.608 541.503 258.896 544.637 254.932C546.546 252.517 548.726 249.922 550.617 247.669C552.455 245.47 552.509 242.281 550.725 240.01H550.743Z" fill="#8933F5" fill-opacity="0.8"/>
<path opacity="0.7" d="M550.743 240.01C543.286 230.549 535.973 220.925 529.921 210.491C528.407 207.878 526.966 205.228 525.615 202.525C524.841 200.993 524.102 199.444 523.382 197.894C522.751 196.542 521.346 194.542 521.22 193.064C519.059 170.231 526.876 153.417 519.365 135.089L489.698 146.695C489.698 146.695 492.22 179.35 497.984 198.885C501.55 211.013 509.638 221.502 517.438 231.215C519.869 234.261 522.229 237.361 524.661 240.406C526.966 243.29 529.542 245.921 531.848 248.786C535.36 253.13 536.513 257.293 533.847 262.411C533.703 262.681 533.559 262.951 533.397 263.222C532.64 264.555 536.189 266.069 538.405 263.258C542.079 258.608 541.503 258.896 544.637 254.932C546.546 252.517 548.726 249.922 550.617 247.669C552.455 245.47 552.509 242.281 550.725 240.01H550.743Z" fill="white"/>
<path opacity="0.3" d="M543.484 230.621C539.504 235.433 531.434 241.65 527.885 244.173C528.66 245.038 529.434 245.921 530.191 246.804C537.522 242.011 543.304 235.811 545.502 233.288C544.817 232.405 544.151 231.522 543.484 230.621Z" fill="#8933F5" fill-opacity="0.8"/>
<path opacity="0.3" d="M550.725 240.01C550.653 239.919 550.581 239.847 550.509 239.739C549.266 241.037 548.384 243.127 548.24 245.452C548.114 247.056 548.384 248.534 548.924 249.687C549.519 248.984 550.077 248.299 550.635 247.651C552.491 245.452 552.509 242.262 550.725 240.01Z" fill="#8933F5" fill-opacity="0.8"/>
<path d="M484.996 97.3155C481.898 101.839 478.242 106.29 473.504 110.273C471.163 112.273 468.479 114.094 465.543 115.643C464.065 116.4 462.498 117.049 460.895 117.59L459.688 117.986L459.292 118.112C459.004 118.202 458.716 118.275 458.427 118.347C457.887 118.473 457.329 118.545 456.86 118.599C454.915 118.743 453.492 118.473 452.339 118.184C450.033 117.554 448.502 116.725 447.043 115.914C445.602 115.085 444.359 114.238 443.171 113.373C440.829 111.589 438.703 109.786 436.722 107.876C432.741 104.074 429.211 100.127 425.932 95.7296C424.437 93.7293 424.851 90.8999 426.851 89.4041C428.4 88.2507 430.435 88.2327 431.966 89.2059L432.111 89.296C436.362 91.9992 440.649 94.8466 444.828 97.3876C446.935 98.6311 449.007 99.8926 451.042 100.866C452.033 101.37 453.024 101.839 453.906 102.163C454.771 102.506 455.617 102.686 455.852 102.65C455.942 102.65 455.852 102.524 455.167 102.542C455.005 102.542 454.771 102.578 454.555 102.614C454.429 102.632 454.284 102.668 454.158 102.722C454.032 102.758 454.212 102.686 454.212 102.686L454.807 102.38C455.599 101.983 456.356 101.478 457.13 100.956C458.68 99.9106 460.139 98.5951 461.634 97.1353C464.606 94.1978 467.452 90.5214 470.46 86.7009L470.496 86.6468C473.576 82.7362 479.25 82.0694 483.159 85.169C486.906 88.1246 487.644 93.477 484.996 97.3516V97.3155Z" fill="#8933F5" fill-opacity="0.8"/>
<path opacity="0.7" d="M484.996 97.3155C481.898 101.839 478.242 106.29 473.504 110.273C471.163 112.273 468.479 114.094 465.543 115.643C464.065 116.4 462.498 117.049 460.895 117.59L459.688 117.986L459.292 118.112C459.004 118.202 458.716 118.275 458.427 118.347C457.887 118.473 457.329 118.545 456.86 118.599C454.915 118.743 453.492 118.473 452.339 118.184C450.033 117.554 448.502 116.725 447.043 115.914C445.602 115.085 444.359 114.238 443.171 113.373C440.829 111.589 438.703 109.786 436.722 107.876C432.741 104.074 429.211 100.127 425.932 95.7296C424.437 93.7293 424.851 90.8999 426.851 89.4041C428.4 88.2507 430.435 88.2327 431.966 89.2059L432.111 89.296C436.362 91.9992 440.649 94.8466 444.828 97.3876C446.935 98.6311 449.007 99.8926 451.042 100.866C452.033 101.37 453.024 101.839 453.906 102.163C454.771 102.506 455.617 102.686 455.852 102.65C455.942 102.65 455.852 102.524 455.167 102.542C455.005 102.542 454.771 102.578 454.555 102.614C454.429 102.632 454.284 102.668 454.158 102.722C454.032 102.758 454.212 102.686 454.212 102.686L454.807 102.38C455.599 101.983 456.356 101.478 457.13 100.956C458.68 99.9106 460.139 98.5951 461.634 97.1353C464.606 94.1978 467.452 90.5214 470.46 86.7009L470.496 86.6468C473.576 82.7362 479.25 82.0694 483.159 85.169C486.906 88.1246 487.644 93.477 484.996 97.3516V97.3155Z" fill="white"/>
<path d="M419.142 85.5294L421.249 89.0796C421.249 89.0796 422.87 93.8013 426.095 94.6663L434.831 91.8369L434.398 91.098C433.282 89.386 433.408 86.1061 433.786 83.3668C434.182 80.6275 432.759 80.5374 431.715 81.2042C431.102 81.6007 430.688 82.8442 430.183 84.1958C429.751 83.6011 429.301 83.0244 428.778 82.5198L426.113 79.8526C424.96 78.6993 423.104 78.6452 421.898 79.7265L419.736 81.6548C418.637 82.6279 418.385 84.2679 419.142 85.5294Z" fill="#8933F5" fill-opacity="0.8"/>
<path opacity="0.7" d="M419.142 85.5294L421.249 89.0796C421.249 89.0796 422.87 93.8013 426.095 94.6663L434.831 91.8369L434.398 91.098C433.282 89.386 433.408 86.1061 433.786 83.3668C434.182 80.6275 432.759 80.5374 431.715 81.2042C431.102 81.6007 430.688 82.8442 430.183 84.1958C429.751 83.6011 429.301 83.0244 428.778 82.5198L426.113 79.8526C424.96 78.6993 423.104 78.6452 421.898 79.7265L419.736 81.6548C418.637 82.6279 418.385 84.2679 419.142 85.5294Z" fill="white"/>
<path d="M500.902 72.5727C492.526 74.6091 481.016 79.3848 473.252 84.2326C470.496 85.9446 469.127 89.2065 469.776 92.3783C473.234 109.391 481.142 132.17 489.68 146.677L529.506 130.187C529.777 123.159 520.104 100.416 510.269 78.4297C508.503 74.483 505.117 71.5455 500.902 72.5547V72.5727Z" fill="#8933F5" fill-opacity="0.8"/>
<path opacity="0.8" d="M500.902 72.5727C492.526 74.6091 481.016 79.3848 473.252 84.2326C470.496 85.9446 469.127 89.2065 469.776 92.3783C473.234 109.391 481.142 132.17 489.68 146.677L529.506 130.187C529.777 123.159 520.104 100.416 510.269 78.4297C508.503 74.483 505.117 71.5455 500.902 72.5547V72.5727Z" fill="white"/>
<path opacity="0.3" d="M516.429 92.3777L508.521 89.7285C510.287 94.36 516.681 100.217 521.185 103.659C519.707 100.037 518.104 96.2703 516.429 92.3777Z" fill="#8933F5" fill-opacity="0.8"/>
<path d="M498.272 54.7311C494.994 48.4597 487.879 45.3059 479.323 46.0087C472.118 46.6035 465.741 53.9742 466.498 57.939C467.254 61.9217 473.307 63.5977 474.405 64.9854L469.416 68.6077C466.93 70.4098 466.444 73.924 468.335 76.3389C470.442 79.0061 473.198 81.7994 474.82 83.7637C488.617 83.4033 498.831 78.141 502.505 73.059C501.19 66.6073 501.533 60.9666 498.254 54.7131L498.272 54.7311Z" fill="#8933F5" fill-opacity="0.8"/>
<path opacity="0.8" d="M498.272 54.7311C494.994 48.4597 487.879 45.3059 479.323 46.0087C472.118 46.6035 465.741 53.9742 466.498 57.939C467.254 61.9217 473.307 63.5977 474.405 64.9854L469.416 68.6077C466.93 70.4098 466.444 73.924 468.335 76.3389C470.442 79.0061 473.198 81.7994 474.82 83.7637C488.617 83.4033 498.831 78.141 502.505 73.059C501.19 66.6073 501.533 60.9666 498.254 54.7131L498.272 54.7311Z" fill="white"/>
<path d="M491.517 58.6056C494.255 65.6339 490.797 73.5454 483.772 76.2846C476.747 79.0239 468.839 75.5638 466.101 68.5354C463.363 61.507 466.821 53.5956 473.847 50.8563C480.872 48.1171 488.779 51.5772 491.517 58.6056Z" fill="#263238"/>
<path d="M608.457 221.015C608.259 215.086 608.007 215.681 607.827 210.635C607.719 207.571 607.701 204.165 607.683 201.228C607.665 198.362 605.629 195.893 602.819 195.317C600.423 194.83 598.046 194.379 595.65 193.857C592.534 193.19 589.472 192.487 586.409 191.586C584.05 190.901 581.69 190.144 579.384 189.297C576.899 188.396 574.449 187.423 572.017 186.378C569.171 185.152 566.379 183.855 563.587 182.521C560.471 181.026 557.391 179.494 554.328 177.926C542.476 158.282 542.224 145.361 529.489 130.169L502.181 142.532C502.181 142.532 522.248 178.142 535.901 193.244C543.773 201.93 556.112 205.859 567.118 208.689C575.061 210.743 583.113 212.311 591.165 213.789C594.299 214.365 597.703 214.582 600.405 216.456C602.531 217.934 603.63 220.24 604.26 222.673C604.386 223.178 604.494 223.682 604.584 224.187C604.873 225.701 608.547 224.565 608.421 220.979L608.457 221.015Z" fill="#8933F5" fill-opacity="0.8"/>
<path opacity="0.8" d="M608.457 221.015C608.259 215.086 608.007 215.681 607.827 210.635C607.719 207.571 607.701 204.165 607.683 201.228C607.665 198.362 605.629 195.893 602.819 195.317C600.423 194.83 598.046 194.379 595.65 193.857C592.534 193.19 589.472 192.487 586.409 191.586C584.05 190.901 581.69 190.144 579.384 189.297C576.899 188.396 574.449 187.423 572.017 186.378C569.171 185.152 566.379 183.855 563.587 182.521C560.471 181.026 557.391 179.494 554.328 177.926C542.476 158.282 542.224 145.361 529.489 130.169L502.181 142.532C502.181 142.532 522.248 178.142 535.901 193.244C543.773 201.93 556.112 205.859 567.118 208.689C575.061 210.743 583.113 212.311 591.165 213.789C594.299 214.365 597.703 214.582 600.405 216.456C602.531 217.934 603.63 220.24 604.26 222.673C604.386 223.178 604.494 223.682 604.584 224.187C604.873 225.701 608.547 224.565 608.421 220.979L608.457 221.015Z" fill="white"/>
<path opacity="0.3" d="M594.623 193.64C593.542 193.406 592.462 193.172 591.363 192.901C591.453 199.119 588.535 209.878 587.454 213.121C588.589 213.338 589.742 213.554 590.877 213.77C594.047 205.21 594.533 196.163 594.605 193.622L594.623 193.64Z" fill="#8933F5" fill-opacity="0.8"/>
<path opacity="0.3" d="M607.701 201.228C607.683 198.345 605.665 195.894 602.855 195.317C602.297 195.209 601.702 195.083 601.144 194.975C601.27 196.669 602.315 198.633 604.08 200.201C605.233 201.246 606.548 201.931 607.737 202.255C607.737 201.895 607.737 201.552 607.719 201.228H607.701Z" fill="#8933F5" fill-opacity="0.8"/>
<path d="M488.96 58.7316C489.68 61.4708 486.636 64.3363 484.186 61.9754C482.205 60.0652 479.215 56.8393 476.765 55.3255C474.261 53.7577 477.593 51.0184 481.538 52.0817C485.213 53.0728 488.221 56.0103 488.96 58.7316Z" fill="white"/>
<path d="M489.176 145.811C487.915 146.28 490.221 148.442 490.221 148.442C490.221 148.442 515.385 139.81 530.732 130.926C530.858 129.069 529.507 128.078 529.507 128.078C529.507 128.078 510.827 137.81 489.158 145.811H489.176Z" fill="#8933F5" fill-opacity="0.8"/>
<path opacity="0.5" d="M489.176 145.811C487.915 146.28 490.221 148.442 490.221 148.442C490.221 148.442 515.385 139.81 530.732 130.926C530.858 129.069 529.507 128.078 529.507 128.078C529.507 128.078 510.827 137.81 489.158 145.811H489.176Z" fill="white"/>
<path d="M507.729 71.3833C512.701 73.8883 517.366 76.5555 522.049 79.493C524.373 80.9527 526.697 82.4665 528.966 84.0885C531.272 85.6744 533.524 87.3504 535.811 89.2426L536.658 89.9455L537.721 90.9006C538.477 91.5674 539.036 92.1801 539.594 92.7928C540.17 93.4236 540.657 94.0363 541.125 94.6491C541.611 95.2618 542.08 95.8745 542.512 96.4692C544.295 98.8661 545.754 101.299 547.177 103.714C549.951 108.616 552.347 113.5 554.328 118.762C555.211 121.105 554.022 123.718 551.681 124.601C549.915 125.268 548.006 124.763 546.781 123.465L546.691 123.375C543.07 119.537 539.594 115.5 536.099 111.733C532.677 107.985 529.056 104.146 526.12 102.47C522.031 99.9113 517.474 97.3883 512.953 94.8833L499.335 87.3143H499.299C494.94 84.8814 493.373 79.4029 495.787 75.0417C498.146 70.8066 503.424 69.2027 507.729 71.3653V71.3833Z" fill="#8933F5" fill-opacity="0.8"/>
<path opacity="0.8" d="M507.729 71.3833C512.701 73.8883 517.366 76.5555 522.049 79.493C524.373 80.9527 526.697 82.4665 528.966 84.0885C531.272 85.6744 533.524 87.3504 535.811 89.2426L536.658 89.9455L537.721 90.9006C538.477 91.5674 539.036 92.1801 539.594 92.7928C540.17 93.4236 540.657 94.0363 541.125 94.6491C541.611 95.2618 542.08 95.8745 542.512 96.4692C544.295 98.8661 545.754 101.299 547.177 103.714C549.951 108.616 552.347 113.5 554.328 118.762C555.211 121.105 554.022 123.718 551.681 124.601C549.915 125.268 548.006 124.763 546.781 123.465L546.691 123.375C543.07 119.537 539.594 115.5 536.099 111.733C532.677 107.985 529.056 104.146 526.12 102.47C522.031 99.9113 517.474 97.3883 512.953 94.8833L499.335 87.3143H499.299C494.94 84.8814 493.373 79.4029 495.787 75.0417C498.146 70.8066 503.424 69.2027 507.729 71.3653V71.3833Z" fill="white"/>
<path d="M558.652 127.574L557.121 123.735C557.121 123.735 556.274 118.833 553.212 117.464L544.133 118.888L544.458 119.681C545.304 121.537 544.656 124.781 543.845 127.412C543.035 130.061 544.422 130.367 545.556 129.863C546.223 129.574 546.835 128.403 547.538 127.141C547.862 127.79 548.24 128.439 548.673 129.034L550.888 132.079C551.843 133.395 553.662 133.737 555.031 132.854L557.463 131.286C558.706 130.493 559.21 128.926 558.67 127.556L558.652 127.574Z" fill="#8933F5" fill-opacity="0.8"/>
<path opacity="0.8" d="M558.652 127.574L557.121 123.735C557.121 123.735 556.274 118.833 553.212 117.464L544.133 118.888L544.458 119.681C545.304 121.537 544.656 124.781 543.845 127.412C543.035 130.061 544.422 130.367 545.556 129.863C546.223 129.574 546.835 128.403 547.538 127.141C547.862 127.79 548.24 128.439 548.673 129.034L550.888 132.079C551.843 133.395 553.662 133.737 555.031 132.854L557.463 131.286C558.706 130.493 559.21 128.926 558.67 127.556L558.652 127.574Z" fill="white"/>
<path opacity="0.3" d="M500.11 92.0898L497.912 92.2701L484.42 124.853C485.213 124.907 485.933 124.853 486.618 124.673C486.618 124.673 504.199 118.113 509.512 115.716C505.928 108.291 500.092 92.0898 500.092 92.0898H500.11Z" fill="#8933F5" fill-opacity="0.8"/>
<path d="M475.486 100.65C476.242 106.525 480.637 118.996 484.42 124.871C491.013 122.6 502.001 118.311 507.315 115.914C503.73 108.489 499.965 98.2532 497.894 92.2881C492.22 92.6665 479.863 97.3341 475.468 100.668L475.486 100.65Z" fill="white"/>
<path opacity="0.3" d="M488.887 107.697C488.149 110.148 485.555 111.553 483.105 110.814C480.655 110.076 479.25 107.48 479.989 105.03C480.727 102.579 483.321 101.173 485.771 101.912C488.221 102.651 489.626 105.246 488.887 107.697Z" fill="#8933F5" fill-opacity="0.8"/>
<path opacity="0.6" d="M492.328 101.497C492.094 102.308 491.247 102.759 490.437 102.524C489.626 102.29 489.176 101.443 489.41 100.632C489.644 99.8211 490.491 99.3705 491.301 99.6048C492.112 99.8391 492.562 100.686 492.328 101.497Z" fill="#8933F5" fill-opacity="0.8"/>
<path opacity="0.6" d="M496.345 99.9287C496.11 100.74 495.264 101.19 494.453 100.956C493.643 100.722 493.192 99.8746 493.427 99.0637C493.661 98.2527 494.525 97.8022 495.318 98.0365C496.129 98.2707 496.579 99.1177 496.345 99.9287Z" fill="#8933F5" fill-opacity="0.8"/>
<path opacity="0.5" d="M502.019 113.95L485.357 120.546L484.348 117.266L501.01 110.688L502.019 113.95Z" fill="#8933F5" fill-opacity="0.8"/>
<path opacity="0.2" d="M410.081 364.431C409.721 378.019 408.712 388.454 407.055 395.698C404.929 404.961 401.633 411.737 397.148 416.026C392.68 420.315 387.385 422.46 381.278 422.46C372.02 422.46 364.941 417.414 360.077 407.304C359.285 405.664 358.564 403.79 357.898 401.699C347.612 410.548 338.029 420.207 329.221 430.588L319.656 441.869C324.826 447.113 330.698 451.421 337.255 454.827C348.477 460.63 363.193 463.549 381.422 463.549C384.629 463.549 387.727 463.459 390.735 463.279C401.759 446.951 410.891 429.398 417.935 410.98L444.684 341.201L410.081 364.431Z" fill="black"/>
<path d="M168.942 459.566C179.03 469.658 200.465 491.103 200.465 491.103L288.746 407.898C258.358 396.346 199.15 429.344 168.942 459.566Z" fill="#263238"/>
<path d="M278.893 569.551C268.805 559.459 247.37 538.014 247.37 538.014L330.536 449.69C342.082 480.093 309.1 539.329 278.893 569.551Z" fill="#263238"/>
<path d="M399.525 370.792L433.912 304.455L367.606 338.858C346.297 349.905 326.645 363.872 309.172 380.326L196.142 486.778L251.675 542.339L358.077 429.254C374.523 411.773 388.465 392.094 399.525 370.792Z" fill="#8933F5" fill-opacity="0.8"/>
<path opacity="0.6" d="M399.525 370.792L433.912 304.455L367.606 338.858C346.297 349.905 326.645 363.872 309.172 380.326L196.142 486.778L251.675 542.339L358.077 429.254C374.523 411.773 388.465 392.094 399.525 370.792Z" fill="white"/>
<path d="M328.914 432.75C341.748 432.75 352.151 422.342 352.151 409.503C352.151 396.663 341.748 386.255 328.914 386.255C316.081 386.255 305.678 396.663 305.678 409.503C305.678 422.342 316.081 432.75 328.914 432.75Z" fill="white"/>
<path d="M328.915 424.442C337.162 424.442 343.848 417.753 343.848 409.502C343.848 401.251 337.162 394.562 328.915 394.562C320.668 394.562 313.982 401.251 313.982 409.502C313.982 417.753 320.668 424.442 328.915 424.442Z" fill="#8933F5" fill-opacity="0.8"/>
<path opacity="0.3" d="M270.463 522.371L216.101 467.982L260.61 426.064L312.361 477.84L270.463 522.371Z" fill="#8933F5" fill-opacity="0.8"/>
<path d="M181.263 509.396C140.554 512.711 127.062 538.789 122.451 573.444C120.109 591.123 119.065 609 104.222 619.363C100.097 622.228 102.151 628.644 107.158 628.481C161.809 626.769 187.298 600.008 190.504 588.798C189.405 595.881 187.802 601.485 186.019 605.865C184.181 610.388 189.153 614.569 193.278 611.974C208.625 602.35 227.863 584.653 229.141 555.963C217.793 540.014 181.263 509.396 181.263 509.396Z" fill="#8933F5" fill-opacity="0.8"/>
<path opacity="0.2" d="M181.263 509.396C140.554 512.711 127.062 538.789 122.451 573.444C120.109 591.123 119.065 609 104.222 619.363C100.097 622.228 102.151 628.644 107.158 628.481C161.809 626.769 187.298 600.008 190.504 588.798C189.405 595.881 187.802 601.485 186.019 605.865C184.181 610.388 189.153 614.569 193.278 611.974C208.625 602.35 227.863 584.653 229.141 555.963C217.793 540.014 181.263 509.396 181.263 509.396Z" fill="white"/>
<path d="M235.392 568.307L170.203 503.07L204.932 495.555L242.903 533.544L235.392 568.307Z" fill="#8933F5" fill-opacity="0.8"/>
</g>
<defs>
<clipPath id="clip0_59_2639">
<rect width="758" height="703" fill="white"/>
</clipPath>
</defs>
</svg>
