<svg width="auto" height="15" viewBox="0 0 17 15" fill="none" xmlns="http://www.w3.org/2000/svg">
<path d="M9.65625 0.746094L15.8438 6.65234C16.0195 6.82812 16.125 7.03906 16.125 7.28516C16.125 7.49609 16.0195 7.70703 15.8438 7.88281L9.65625 13.7891C9.33984 14.1055 8.77734 14.1055 8.46094 13.7539C8.14453 13.4375 8.14453 12.875 8.49609 12.5586L13.1719 8.12891H1.21875C0.726562 8.12891 0.375 7.74219 0.375 7.28516C0.375 6.79297 0.726562 6.44141 1.21875 6.44141H13.1719L8.49609 1.97656C8.14453 1.66016 8.14453 1.09766 8.46094 0.78125C8.77734 0.429688 9.30469 0.429688 9.65625 0.746094Z" fill="white"/>
</svg>
