<svg width="16" height="17" viewBox="0 0 16 17" fill="none" xmlns="http://www.w3.org/2000/svg">
<path d="M8.5625 5.50781C8.21094 5.82422 7.68359 5.78906 7.36719 5.47266L5.46875 3.39844V15.2812C5.46875 15.7734 5.08203 16.125 4.625 16.125C4.13281 16.125 3.78125 15.7734 3.78125 15.2812V3.39844L1.84766 5.47266C1.67188 5.64844 1.46094 5.71875 1.25 5.71875C1.03906 5.71875 0.828125 5.64844 0.652344 5.50781C0.300781 5.19141 0.300781 4.66406 0.617188 4.3125L3.99219 0.65625C4.30859 0.304688 4.90625 0.304688 5.22266 0.65625L8.59766 4.3125C8.91406 4.66406 8.91406 5.19141 8.5625 5.50781ZM15.3125 11.0273C15.6641 11.3438 15.6641 11.8711 15.2773 12.2227L11.9375 15.8789C11.6211 16.2305 11.0234 16.2305 10.707 15.8789L7.36719 12.2227C7.05078 11.8711 7.05078 11.3438 7.40234 11.0273C7.57812 10.8867 7.78906 10.8164 8 10.8164C8.21094 10.8164 8.42188 10.8867 8.59766 11.0625L10.5312 13.1367V1.25391C10.5312 0.761719 10.8828 0.375 11.375 0.375C11.832 0.375 12.2188 0.761719 12.2188 1.25391V13.1367L14.1172 11.0625C14.4336 10.7461 14.9609 10.7109 15.3125 11.0273Z" fill="#C59BFA"/>
</svg>
