<svg width="27" height="22" viewBox="0 0 27 22" fill="none" xmlns="http://www.w3.org/2000/svg">
<path d="M7.875 14.75C8.48438 14.75 9 15.2656 9 15.875C9 16.5312 8.48438 17 7.875 17H5.625C4.96875 17 4.5 16.5312 4.5 15.875C4.5 15.2656 4.96875 14.75 5.625 14.75H7.875ZM16.875 14.75C17.4844 14.75 18 15.2656 18 15.875C18 16.5312 17.4844 17 16.875 17H11.625C10.9688 17 10.5 16.5312 10.5 15.875C10.5 15.2656 10.9688 14.75 11.625 14.75H16.875ZM24 0.5C25.6406 0.5 27 1.85938 27 3.5V18.5C27 20.1875 25.6406 21.5 24 21.5H3C1.3125 21.5 0 20.1875 0 18.5V3.5C0 1.85938 1.3125 0.5 3 0.5H24ZM24 2.75H3C2.57812 2.75 2.25 3.125 2.25 3.5V5H24.75V3.5C24.75 3.125 24.375 2.75 24 2.75ZM24.75 9.5H2.25V18.5C2.25 18.9219 2.57812 19.25 3 19.25H24C24.375 19.25 24.75 18.9219 24.75 18.5V9.5Z" fill="white"/>
</svg>
