<svg width="314" height="192" viewBox="0 0 314 192" fill="none" xmlns="http://www.w3.org/2000/svg">
<rect width="314" height="191.549" rx="18.3677" fill="url(#paint0_linear_11_364)"/>
<mask id="mask0_11_364" style="mask-type:alpha" maskUnits="userSpaceOnUse" x="1" y="0" width="315" height="192">
<rect x="1.74902" width="314" height="191.549" rx="18.3677" fill="url(#paint1_linear_11_364)"/>
</mask>
<g mask="url(#mask0_11_364)">
<path d="M278.162 202.949C269.417 22.7711 -152.168 -76.9386 -119.805 102.366L-13.0978 192.454C34.1334 225.399 285.304 350.099 278.162 202.949Z" fill="url(#paint2_linear_11_364)" fill-opacity="0.1"/>
</g>
<path d="M40.5205 44.8092C39.3543 44.8092 38.426 44.4733 37.7356 43.8016C37.0452 43.1205 36.7 42.1316 36.7 40.8348V38.5957C36.7 37.2989 37.0452 36.3146 37.7356 35.6429C38.426 34.9618 39.3543 34.6213 40.5205 34.6213C41.6774 34.6213 42.5637 34.9431 43.1794 35.5869C43.8045 36.2306 44.1171 37.1123 44.1171 38.2318V38.3018H42.9555V38.1898C42.9555 37.4528 42.7549 36.851 42.3538 36.3846C41.9619 35.9087 41.3508 35.6708 40.5205 35.6708C39.6902 35.6708 39.0418 35.9274 38.5753 36.4405C38.1088 36.9443 37.8755 37.6534 37.8755 38.5677V40.8628C37.8755 41.7771 38.1088 42.4908 38.5753 43.0039C39.0418 43.5077 39.6902 43.7596 40.5205 43.7596C41.3508 43.7596 41.9619 43.5264 42.3538 43.0599C42.7549 42.5841 42.9555 41.9777 42.9555 41.2406V41.0167H44.1171V41.1986C44.1171 42.3182 43.8045 43.1998 43.1794 43.8436C42.5637 44.4873 41.6774 44.8092 40.5205 44.8092ZM46.0007 44.6133V37.77H47.0783V38.6097H47.2742C47.3955 38.3111 47.5821 38.0919 47.834 37.9519C48.0859 37.812 48.4171 37.742 48.8276 37.742H49.6393V38.7496H48.7576C48.2632 38.7496 47.862 38.8896 47.5541 39.1694C47.2556 39.44 47.1063 39.8645 47.1063 40.4429V44.6133H46.0007ZM54.1647 44.8092C53.4743 44.8092 52.8679 44.6646 52.3455 44.3754C51.823 44.0768 51.4172 43.6617 51.1279 43.1299C50.8387 42.5981 50.6941 41.9823 50.6941 41.2826V41.1147C50.6941 40.4056 50.8387 39.7852 51.1279 39.2534C51.4172 38.7216 51.8183 38.3111 52.3315 38.0219C52.8446 37.7234 53.4324 37.5741 54.0948 37.5741C54.7385 37.5741 55.3076 37.714 55.8021 37.9939C56.2966 38.2645 56.6837 38.6563 56.9636 39.1694C57.2435 39.6826 57.3835 40.2843 57.3835 40.9747V41.4785H51.7997C51.8277 42.2156 52.0656 42.794 52.5134 43.2138C52.9612 43.6243 53.521 43.8296 54.1927 43.8296C54.7805 43.8296 55.233 43.6943 55.5502 43.4238C55.8674 43.1532 56.11 42.8313 56.2779 42.4581L57.2295 42.92C57.0896 43.2092 56.8936 43.4984 56.6418 43.7876C56.3992 44.0768 56.0773 44.3194 55.6761 44.5153C55.2843 44.7112 54.7805 44.8092 54.1647 44.8092ZM51.8137 40.5689H56.2639C56.2266 39.9345 56.0073 39.44 55.6062 39.0855C55.2143 38.731 54.7105 38.5537 54.0948 38.5537C53.4697 38.5537 52.9566 38.731 52.5554 39.0855C52.1542 39.44 51.907 39.9345 51.8137 40.5689ZM62.2087 44.8092C61.6209 44.8092 61.0798 44.6693 60.5853 44.3894C60.0909 44.1095 59.699 43.7036 59.4098 43.1719C59.1206 42.6401 58.976 42.0103 58.976 41.2826V41.1007C58.976 40.373 59.1206 39.7479 59.4098 39.2254C59.699 38.6936 60.0862 38.2878 60.5713 38.0079C61.0658 37.7187 61.6116 37.5741 62.2087 37.5741C62.6845 37.5741 63.0857 37.6394 63.4122 37.77C63.7481 37.8913 64.0186 38.0499 64.2239 38.2458C64.4291 38.4324 64.5877 38.633 64.6997 38.8476H64.8956V34.8172H66.0012V44.6133H64.9236V43.4797H64.7277C64.5411 43.8249 64.2519 44.1328 63.86 44.4034C63.4682 44.6739 62.9177 44.8092 62.2087 44.8092ZM62.5026 43.8296C63.2116 43.8296 63.7854 43.6057 64.2239 43.1579C64.6717 42.7007 64.8956 42.0663 64.8956 41.2546V41.1287C64.8956 40.317 64.6717 39.6872 64.2239 39.2394C63.7854 38.7823 63.2116 38.5537 62.5026 38.5537C61.8029 38.5537 61.2244 38.7823 60.7673 39.2394C60.3194 39.6872 60.0955 40.317 60.0955 41.1287V41.2546C60.0955 42.0663 60.3194 42.7007 60.7673 43.1579C61.2244 43.6057 61.8029 43.8296 62.5026 43.8296ZM68.318 44.6133V37.77H69.4236V44.6133H68.318ZM68.8778 36.7064C68.6352 36.7064 68.43 36.6271 68.262 36.4685C68.1034 36.3099 68.0241 36.1093 68.0241 35.8668C68.0241 35.6149 68.1034 35.4096 68.262 35.251C68.43 35.0924 68.6352 35.0131 68.8778 35.0131C69.1204 35.0131 69.321 35.0924 69.4796 35.251C69.6382 35.4096 69.7175 35.6149 69.7175 35.8668C69.7175 36.1093 69.6382 36.3099 69.4796 36.4685C69.321 36.6271 69.1204 36.7064 68.8778 36.7064ZM74.2673 44.6133C73.8755 44.6133 73.5722 44.506 73.3577 44.2914C73.1524 44.0768 73.0498 43.7829 73.0498 43.4098V38.7356H70.9926V37.77H73.0498V35.335H74.1553V37.77H76.3944V38.7356H74.1553V43.2418C74.1553 43.5217 74.2906 43.6617 74.5612 43.6617H76.0866V44.6133H74.2673ZM81.1019 44.8092C80.4115 44.8092 79.8005 44.6646 79.2687 44.3754C78.7462 44.0862 78.3357 43.6803 78.0372 43.1579C77.7479 42.6261 77.6033 42.001 77.6033 41.2826V41.1007C77.6033 40.3916 77.7479 39.7712 78.0372 39.2394C78.3357 38.7076 78.7462 38.2971 79.2687 38.0079C79.8005 37.7187 80.4115 37.5741 81.1019 37.5741C81.7923 37.5741 82.3988 37.7187 82.9212 38.0079C83.453 38.2971 83.8635 38.7076 84.1527 39.2394C84.4513 39.7712 84.6005 40.3916 84.6005 41.1007V41.2826C84.6005 42.001 84.4513 42.6261 84.1527 43.1579C83.8635 43.6803 83.453 44.0862 82.9212 44.3754C82.3988 44.6646 81.7923 44.8092 81.1019 44.8092ZM81.1019 43.8156C81.8296 43.8156 82.4081 43.587 82.8372 43.1299C83.2757 42.6634 83.495 42.0383 83.495 41.2546V41.1287C83.495 40.345 83.2757 39.7246 82.8372 39.2674C82.4081 38.8009 81.8296 38.5677 81.1019 38.5677C80.3836 38.5677 79.8051 38.8009 79.3666 39.2674C78.9281 39.7246 78.7089 40.345 78.7089 41.1287V41.2546C78.7089 42.0383 78.9281 42.6634 79.3666 43.1299C79.8051 43.587 80.3836 43.8156 81.1019 43.8156Z" fill="white"/>
<path d="M247.245 30.9403L239.802 48.7037H234.946L231.284 34.5257C231.061 33.6536 230.869 33.3337 230.192 32.9664C229.088 32.3669 227.264 31.8053 225.66 31.4545L225.769 30.9403H233.586C234.097 30.9398 234.591 31.122 234.98 31.454C235.368 31.786 235.625 32.2459 235.704 32.7508L237.639 43.0306L242.42 30.9403H247.245ZM266.274 42.905C266.293 38.2153 259.793 37.957 259.838 35.8622C259.852 35.2248 260.459 34.547 261.785 34.374C263.34 34.2263 264.905 34.5014 266.317 35.1703L267.122 31.4024C265.748 30.8857 264.293 30.6184 262.825 30.6133C258.284 30.6133 255.088 33.0304 255.06 36.4878C255.032 39.0447 257.341 40.4689 259.082 41.322C260.873 42.1917 261.475 42.751 261.465 43.5282C261.453 44.7226 260.039 45.2463 258.717 45.2676C256.408 45.3032 255.069 44.6444 253.999 44.1467L253.167 48.0378C254.24 48.5307 256.221 48.962 258.274 48.981C263.1 48.981 266.257 46.597 266.274 42.905ZM278.263 48.7037H282.513L278.805 30.9403H274.882C274.463 30.9364 274.053 31.0586 273.704 31.291C273.355 31.5234 273.084 31.8553 272.926 32.2436L266.035 48.7037H270.858L271.817 46.0496H277.711L278.263 48.7037ZM273.139 42.4097L275.555 35.739L276.948 42.4097H273.139ZM253.809 30.9403L250.012 48.7037H245.416L249.218 30.9403H253.809Z" fill="white"/>
<path d="M42.1106 129.981V127.73H36.3642V126.219L40.9928 118.961H43.3859V126.581H45.2751V127.73H43.3859V129.981H42.1106ZM37.6394 126.581H42.1106V119.732H41.8902L37.6394 126.392V126.581ZM51.3837 130.202C50.5335 130.202 49.7936 130.076 49.1638 129.824C48.5446 129.562 48.0617 129.2 47.7154 128.738C47.3795 128.265 47.2116 127.714 47.2116 127.085V126.911C47.2116 126.366 47.327 125.914 47.5579 125.557C47.7889 125.201 48.067 124.928 48.3924 124.739C48.7282 124.539 49.0379 124.413 49.3212 124.361V124.156C49.0379 124.072 48.744 123.936 48.4396 123.747C48.1457 123.558 47.8991 123.301 47.6996 122.975C47.5107 122.65 47.4163 122.251 47.4163 121.779V121.606C47.4163 121.008 47.5842 120.498 47.9201 120.079C48.2664 119.648 48.7387 119.318 49.337 119.087C49.9352 118.856 50.6175 118.74 51.3837 118.74C52.1604 118.74 52.8426 118.856 53.4304 119.087C54.0286 119.318 54.4957 119.648 54.8315 120.079C55.1779 120.498 55.3511 121.008 55.3511 121.606V121.779C55.3511 122.251 55.2566 122.65 55.0677 122.975C54.8788 123.301 54.6374 123.558 54.3435 123.747C54.0496 123.936 53.7557 124.072 53.4618 124.156V124.361C53.7557 124.413 54.0654 124.539 54.3907 124.739C54.7161 124.928 54.989 125.201 55.2094 125.557C55.4403 125.914 55.5558 126.366 55.5558 126.911V127.085C55.5558 127.714 55.3878 128.265 55.052 128.738C54.7161 129.2 54.2333 129.562 53.6035 129.824C52.9843 130.076 52.2443 130.202 51.3837 130.202ZM51.3837 129.053C52.2758 129.053 52.979 128.879 53.4933 128.533C54.0181 128.187 54.2805 127.683 54.2805 127.022V126.896C54.2805 126.234 54.0234 125.731 53.5091 125.384C52.9948 125.038 52.2863 124.865 51.3837 124.865C50.4915 124.865 49.7883 125.038 49.274 125.384C48.7597 125.731 48.5026 126.234 48.5026 126.896V127.022C48.5026 127.683 48.7597 128.187 49.274 128.533C49.7988 128.879 50.502 129.053 51.3837 129.053ZM51.3837 123.715C52.2233 123.715 52.8793 123.558 53.3516 123.243C53.8344 122.918 54.0758 122.461 54.0758 121.873V121.747C54.0758 121.149 53.8344 120.693 53.3516 120.378C52.8688 120.052 52.2128 119.89 51.3837 119.89C50.5545 119.89 49.8985 120.052 49.4157 120.378C48.9329 120.693 48.6915 121.149 48.6915 121.747V121.873C48.6915 122.461 48.9329 122.918 49.4157 123.243C49.8985 123.558 50.5545 123.715 51.3837 123.715ZM62.1216 130.202C60.8726 130.202 59.8755 129.835 59.1303 129.1C58.3956 128.355 58.0283 127.242 58.0283 125.762V123.18C58.0283 121.711 58.3956 120.603 59.1303 119.858C59.8755 119.113 60.8726 118.74 62.1216 118.74C63.3811 118.74 64.3782 119.113 65.1129 119.858C65.8581 120.603 66.2307 121.711 66.2307 123.18V125.762C66.2307 127.242 65.8581 128.355 65.1129 129.1C64.3782 129.835 63.3811 130.202 62.1216 130.202ZM62.1216 129.053C63.0663 129.053 63.7747 128.769 64.247 128.202C64.7193 127.636 64.9555 126.843 64.9555 125.825V123.101C64.9555 122.083 64.7141 121.296 64.2313 120.74C63.7485 120.173 63.0453 119.89 62.1216 119.89C61.198 119.89 60.4948 120.173 60.012 120.74C59.5397 121.307 59.3035 122.094 59.3035 123.101V125.825C59.3035 126.854 59.5397 127.651 60.012 128.218C60.4843 128.774 61.1875 129.053 62.1216 129.053ZM68.7911 129.981V128.832C68.7911 128.045 68.9275 127.415 69.2004 126.943C69.4838 126.471 69.8721 126.093 70.3654 125.809C70.8692 125.515 71.4675 125.264 72.1602 125.054L73.0261 124.786C73.4984 124.639 73.913 124.461 74.2699 124.251C74.6267 124.03 74.9049 123.757 75.1043 123.432C75.3037 123.096 75.4034 122.687 75.4034 122.204V122.141C75.4034 121.448 75.162 120.903 74.6792 120.504C74.1964 120.094 73.5772 119.89 72.8215 119.89C72.0238 119.89 71.373 120.105 70.8692 120.535C70.3654 120.955 70.1135 121.595 70.1135 122.456V122.676H68.854V122.472C68.854 121.674 69.0272 120.997 69.3736 120.441C69.72 119.884 70.1923 119.465 70.7905 119.181C71.3888 118.887 72.0658 118.74 72.8215 118.74C73.5772 118.74 74.2437 118.882 74.8209 119.166C75.4087 119.449 75.8653 119.842 76.1906 120.346C76.516 120.85 76.6787 121.438 76.6787 122.11V122.251C76.6787 122.965 76.537 123.558 76.2536 124.03C75.9702 124.492 75.5766 124.87 75.0728 125.164C74.5795 125.458 73.997 125.71 73.3253 125.92L72.4751 126.187C71.9398 126.355 71.4937 126.534 71.1369 126.722C70.7905 126.901 70.5281 127.132 70.3497 127.415C70.1713 127.699 70.0821 128.082 70.0821 128.565V128.832H76.5842V129.981H68.7911ZM93.5567 129.981V128.832C93.5567 128.045 93.6931 127.415 93.966 126.943C94.2494 126.471 94.6378 126.093 95.1311 125.809C95.6349 125.515 96.2331 125.264 96.9259 125.054L97.7918 124.786C98.2641 124.639 98.6787 124.461 99.0355 124.251C99.3924 124.03 99.6705 123.757 99.8699 123.432C100.069 123.096 100.169 122.687 100.169 122.204V122.141C100.169 121.448 99.9277 120.903 99.4449 120.504C98.962 120.094 98.3428 119.89 97.5871 119.89C96.7894 119.89 96.1387 120.105 95.6349 120.535C95.1311 120.955 94.8792 121.595 94.8792 122.456V122.676H93.6197V122.472C93.6197 121.674 93.7929 120.997 94.1392 120.441C94.4856 119.884 94.9579 119.465 95.5562 119.181C96.1544 118.887 96.8314 118.74 97.5871 118.74C98.3428 118.74 99.0093 118.882 99.5865 119.166C100.174 119.449 100.631 119.842 100.956 120.346C101.282 120.85 101.444 121.438 101.444 122.11V122.251C101.444 122.965 101.303 123.558 101.019 124.03C100.736 124.492 100.342 124.87 99.8384 125.164C99.3451 125.458 98.7626 125.71 98.0909 125.92L97.2407 126.187C96.7054 126.355 96.2594 126.534 95.9025 126.722C95.5562 126.901 95.2938 127.132 95.1153 127.415C94.9369 127.699 94.8477 128.082 94.8477 128.565V128.832H101.35V129.981H93.5567ZM103.83 129.981V128.832C103.83 128.045 103.967 127.415 104.239 126.943C104.523 126.471 104.911 126.093 105.404 125.809C105.908 125.515 106.507 125.264 107.199 125.054L108.065 124.786C108.537 124.639 108.952 124.461 109.309 124.251C109.666 124.03 109.944 123.757 110.143 123.432C110.343 123.096 110.442 122.687 110.442 122.204V122.141C110.442 121.448 110.201 120.903 109.718 120.504C109.235 120.094 108.616 119.89 107.86 119.89C107.063 119.89 106.412 120.105 105.908 120.535C105.404 120.955 105.153 121.595 105.153 122.456V122.676H103.893V122.472C103.893 121.674 104.066 120.997 104.413 120.441C104.759 119.884 105.231 119.465 105.83 119.181C106.428 118.887 107.105 118.74 107.86 118.74C108.616 118.74 109.283 118.882 109.86 119.166C110.448 119.449 110.904 119.842 111.23 120.346C111.555 120.85 111.718 121.438 111.718 122.11V122.251C111.718 122.965 111.576 123.558 111.293 124.03C111.009 124.492 110.616 124.87 110.112 125.164C109.619 125.458 109.036 125.71 108.364 125.92L107.514 126.187C106.979 126.355 106.533 126.534 106.176 126.722C105.83 126.901 105.567 127.132 105.389 127.415C105.21 127.699 105.121 128.082 105.121 128.565V128.832H111.623V129.981H103.83ZM117.315 129.981V119.811H117.079L114.938 123.731H113.552L116.182 118.961H118.59V129.981H117.315ZM125.391 130.202C124.583 130.202 123.885 130.05 123.297 129.745C122.71 129.43 122.253 129 121.928 128.454C121.602 127.898 121.44 127.258 121.44 126.534V126.345H122.715V126.486C122.715 127.316 122.956 127.951 123.439 128.391C123.922 128.832 124.562 129.053 125.36 129.053C126.199 129.053 126.855 128.816 127.328 128.344C127.8 127.872 128.036 127.226 128.036 126.408V126.266C128.036 125.479 127.805 124.854 127.343 124.392C126.892 123.92 126.304 123.684 125.58 123.684C125.16 123.684 124.814 123.752 124.541 123.889C124.268 124.015 124.053 124.177 123.896 124.377C123.738 124.566 123.607 124.749 123.502 124.928H121.77V118.961H129.012V120.11H123.045V123.92H123.266C123.381 123.71 123.539 123.506 123.738 123.306C123.948 123.107 124.226 122.939 124.573 122.802C124.919 122.666 125.349 122.598 125.864 122.598C126.504 122.598 127.081 122.745 127.595 123.038C128.12 123.332 128.535 123.752 128.839 124.298C129.154 124.844 129.311 125.494 129.311 126.25V126.423C129.311 127.169 129.154 127.825 128.839 128.391C128.524 128.958 128.073 129.404 127.485 129.73C126.897 130.044 126.199 130.202 125.391 130.202ZM149.387 129.981V119.811H149.151L147.01 123.731H145.624L148.253 118.961H150.662V129.981H149.387ZM156.754 129.981V119.811H156.518L154.377 123.731H152.992L155.621 118.961H158.03V129.981H156.754ZM164.972 130.202C164.122 130.202 163.382 130.076 162.752 129.824C162.133 129.562 161.65 129.2 161.304 128.738C160.968 128.265 160.8 127.714 160.8 127.085V126.911C160.8 126.366 160.916 125.914 161.147 125.557C161.377 125.201 161.656 124.928 161.981 124.739C162.317 124.539 162.626 124.413 162.91 124.361V124.156C162.626 124.072 162.333 123.936 162.028 123.747C161.734 123.558 161.488 123.301 161.288 122.975C161.099 122.65 161.005 122.251 161.005 121.779V121.606C161.005 121.008 161.173 120.498 161.509 120.079C161.855 119.648 162.327 119.318 162.926 119.087C163.524 118.856 164.206 118.74 164.972 118.74C165.749 118.74 166.431 118.856 167.019 119.087C167.617 119.318 168.084 119.648 168.42 120.079C168.766 120.498 168.94 121.008 168.94 121.606V121.779C168.94 122.251 168.845 122.65 168.656 122.975C168.467 123.301 168.226 123.558 167.932 123.747C167.638 123.936 167.344 124.072 167.05 124.156V124.361C167.344 124.413 167.654 124.539 167.979 124.739C168.305 124.928 168.578 125.201 168.798 125.557C169.029 125.914 169.144 126.366 169.144 126.911V127.085C169.144 127.714 168.976 128.265 168.641 128.738C168.305 129.2 167.822 129.562 167.192 129.824C166.573 130.076 165.833 130.202 164.972 130.202ZM164.972 129.053C165.864 129.053 166.568 128.879 167.082 128.533C167.607 128.187 167.869 127.683 167.869 127.022V126.896C167.869 126.234 167.612 125.731 167.098 125.384C166.583 125.038 165.875 124.865 164.972 124.865C164.08 124.865 163.377 125.038 162.863 125.384C162.348 125.731 162.091 126.234 162.091 126.896V127.022C162.091 127.683 162.348 128.187 162.863 128.533C163.387 128.879 164.091 129.053 164.972 129.053ZM164.972 123.715C165.812 123.715 166.468 123.558 166.94 123.243C167.423 122.918 167.664 122.461 167.664 121.873V121.747C167.664 121.149 167.423 120.693 166.94 120.378C166.457 120.052 165.801 119.89 164.972 119.89C164.143 119.89 163.487 120.052 163.004 120.378C162.521 120.693 162.28 121.149 162.28 121.747V121.873C162.28 122.461 162.521 122.918 163.004 123.243C163.487 123.558 164.143 123.715 164.972 123.715ZM175.443 130.202C174.666 130.202 173.968 130.055 173.349 129.761C172.74 129.467 172.257 129.042 171.9 128.486C171.554 127.93 171.381 127.258 171.381 126.471V126.171H172.656V126.455C172.656 127.263 172.913 127.898 173.427 128.36C173.942 128.822 174.613 129.053 175.443 129.053C176.282 129.053 176.933 128.837 177.395 128.407C177.867 127.966 178.103 127.415 178.103 126.754V126.628C178.103 126.145 177.988 125.757 177.757 125.463C177.526 125.159 177.211 124.938 176.812 124.802C176.424 124.655 175.994 124.581 175.521 124.581H173.726V122.991L177.93 120.299V120.11H171.648V118.961H179.284V120.74L175.175 123.385V123.574H175.962C176.581 123.574 177.148 123.689 177.662 123.92C178.187 124.141 178.602 124.476 178.906 124.928C179.221 125.369 179.378 125.925 179.378 126.597V126.77C179.378 127.462 179.216 128.066 178.89 128.58C178.565 129.095 178.109 129.493 177.521 129.777C176.933 130.06 176.24 130.202 175.443 130.202ZM201.703 129.981V127.73H195.957V126.219L200.586 118.961H202.979V126.581H204.868V127.73H202.979V129.981H201.703ZM197.232 126.581H201.703V119.732H201.483L197.232 126.392V126.581ZM206.915 129.981V128.832C206.915 128.045 207.051 127.415 207.324 126.943C207.607 126.471 207.996 126.093 208.489 125.809C208.993 125.515 209.591 125.264 210.284 125.054L211.15 124.786C211.622 124.639 212.037 124.461 212.393 124.251C212.75 124.03 213.028 123.757 213.228 123.432C213.427 123.096 213.527 122.687 213.527 122.204V122.141C213.527 121.448 213.286 120.903 212.803 120.504C212.32 120.094 211.701 119.89 210.945 119.89C210.147 119.89 209.497 120.105 208.993 120.535C208.489 120.955 208.237 121.595 208.237 122.456V122.676H206.978V122.472C206.978 121.674 207.151 120.997 207.497 120.441C207.844 119.884 208.316 119.465 208.914 119.181C209.512 118.887 210.189 118.74 210.945 118.74C211.701 118.74 212.367 118.882 212.944 119.166C213.532 119.449 213.989 119.842 214.314 120.346C214.64 120.85 214.802 121.438 214.802 122.11V122.251C214.802 122.965 214.661 123.558 214.377 124.03C214.094 124.492 213.7 124.87 213.196 125.164C212.703 125.458 212.121 125.71 211.449 125.92L210.599 126.187C210.063 126.355 209.617 126.534 209.26 126.722C208.914 126.901 208.652 127.132 208.473 127.415C208.295 127.699 208.206 128.082 208.206 128.565V128.832H214.708V129.981H206.915ZM221.25 130.202C220.4 130.202 219.66 130.076 219.03 129.824C218.411 129.562 217.928 129.2 217.582 128.738C217.246 128.265 217.078 127.714 217.078 127.085V126.911C217.078 126.366 217.193 125.914 217.424 125.557C217.655 125.201 217.933 124.928 218.259 124.739C218.594 124.539 218.904 124.413 219.187 124.361V124.156C218.904 124.072 218.61 123.936 218.306 123.747C218.012 123.558 217.765 123.301 217.566 122.975C217.377 122.65 217.283 122.251 217.283 121.779V121.606C217.283 121.008 217.45 120.498 217.786 120.079C218.133 119.648 218.605 119.318 219.203 119.087C219.801 118.856 220.484 118.74 221.25 118.74C222.027 118.74 222.709 118.856 223.297 119.087C223.895 119.318 224.362 119.648 224.698 120.079C225.044 120.498 225.217 121.008 225.217 121.606V121.779C225.217 122.251 225.123 122.65 224.934 122.975C224.745 123.301 224.504 123.558 224.21 123.747C223.916 123.936 223.622 124.072 223.328 124.156V124.361C223.622 124.413 223.932 124.539 224.257 124.739C224.582 124.928 224.855 125.201 225.076 125.557C225.307 125.914 225.422 126.366 225.422 126.911V127.085C225.422 127.714 225.254 128.265 224.918 128.738C224.582 129.2 224.1 129.562 223.47 129.824C222.851 130.076 222.111 130.202 221.25 130.202ZM221.25 129.053C222.142 129.053 222.845 128.879 223.36 128.533C223.884 128.187 224.147 127.683 224.147 127.022V126.896C224.147 126.234 223.89 125.731 223.375 125.384C222.861 125.038 222.153 124.865 221.25 124.865C220.358 124.865 219.655 125.038 219.14 125.384C218.626 125.731 218.369 126.234 218.369 126.896V127.022C218.369 127.683 218.626 128.187 219.14 128.533C219.665 128.879 220.368 129.053 221.25 129.053ZM221.25 123.715C222.09 123.715 222.746 123.558 223.218 123.243C223.701 122.918 223.942 122.461 223.942 121.873V121.747C223.942 121.149 223.701 120.693 223.218 120.378C222.735 120.052 222.079 119.89 221.25 119.89C220.421 119.89 219.765 120.052 219.282 120.378C218.799 120.693 218.558 121.149 218.558 121.747V121.873C218.558 122.461 218.799 122.918 219.282 123.243C219.765 123.558 220.421 123.715 221.25 123.715ZM231.657 130.202C230.849 130.202 230.156 130.06 229.579 129.777C229.012 129.483 228.582 129.084 228.288 128.58C227.994 128.076 227.847 127.504 227.847 126.864H229.123C229.123 127.515 229.338 128.045 229.768 128.454C230.198 128.853 230.828 129.053 231.657 129.053C232.528 129.053 233.195 128.822 233.657 128.36C234.129 127.888 234.365 127.242 234.365 126.423V124.896H234.161C233.961 125.211 233.641 125.505 233.2 125.778C232.77 126.04 232.161 126.171 231.374 126.171C230.713 126.171 230.104 126.025 229.548 125.731C229.002 125.437 228.566 125.022 228.241 124.487C227.916 123.952 227.753 123.317 227.753 122.582V122.393C227.753 121.637 227.926 120.992 228.272 120.456C228.619 119.911 229.086 119.491 229.674 119.197C230.272 118.893 230.949 118.74 231.704 118.74C232.471 118.74 233.148 118.893 233.735 119.197C234.334 119.491 234.801 119.916 235.137 120.472C235.472 121.018 235.64 121.679 235.64 122.456V126.297C235.64 127.116 235.478 127.819 235.152 128.407C234.838 128.984 234.381 129.43 233.783 129.745C233.184 130.05 232.476 130.202 231.657 130.202ZM231.704 125.101C232.229 125.101 232.691 124.996 233.09 124.786C233.489 124.566 233.798 124.266 234.019 123.889C234.25 123.5 234.365 123.049 234.365 122.535V122.409C234.365 121.622 234.119 121.008 233.625 120.567C233.142 120.115 232.502 119.89 231.704 119.89C230.907 119.89 230.261 120.115 229.768 120.567C229.275 121.008 229.028 121.622 229.028 122.409V122.535C229.028 123.049 229.138 123.5 229.359 123.889C229.59 124.266 229.904 124.566 230.303 124.786C230.713 124.996 231.18 125.101 231.704 125.101Z" fill="white"/>
<path d="M36.84 162.842V154.27H38.7992L41.0768 162.193H41.236L43.5136 154.27H45.4728V162.842H44.4809V154.944H44.3095L42.0441 162.842H40.2686L38.0032 154.944H37.8318V162.842H36.84ZM48.4145 162.842V154.27H53.6921V155.201H49.4431V158.066H53.3493V158.997H49.4431V161.911H53.7534V162.842H48.4145ZM56.2939 162.842V154.27H57.3225V161.911H61.6573V162.842H56.2939ZM63.9581 162.842V154.27H64.9867V161.911H69.3215V162.842H63.9581ZM71.6223 162.842V154.27H72.6509V162.842H71.6223ZM78.4446 163.013C77.8242 163.013 77.2691 162.903 76.7793 162.683C76.2895 162.462 75.9017 162.132 75.616 161.691C75.3384 161.242 75.1996 160.683 75.1996 160.013V159.756H76.216V160.013C76.216 160.723 76.4241 161.254 76.8405 161.605C77.2568 161.948 77.7915 162.119 78.4446 162.119C79.114 162.119 79.6242 161.968 79.9752 161.666C80.3263 161.364 80.5018 160.985 80.5018 160.527C80.5018 160.209 80.4201 159.956 80.2569 159.768C80.1018 159.581 79.8814 159.429 79.5956 159.315C79.3099 159.193 78.9752 159.087 78.5915 158.997L77.9548 158.838C77.4568 158.707 77.016 158.548 76.6323 158.36C76.2486 158.172 75.9466 157.927 75.7262 157.625C75.5139 157.315 75.4078 156.919 75.4078 156.438C75.4078 155.956 75.5262 155.54 75.7629 155.189C76.0078 154.838 76.3466 154.568 76.7793 154.38C77.2201 154.193 77.7262 154.099 78.2977 154.099C78.8773 154.099 79.3956 154.201 79.8528 154.405C80.3181 154.601 80.6814 154.895 80.9426 155.287C81.212 155.67 81.3467 156.156 81.3467 156.744V157.258H80.3303V156.744C80.3303 156.327 80.2405 155.993 80.061 155.74C79.8895 155.487 79.6487 155.299 79.3385 155.176C79.0364 155.054 78.6895 154.993 78.2977 154.993C77.7344 154.993 77.2813 155.119 76.9384 155.372C76.5956 155.617 76.4241 155.968 76.4241 156.425C76.4241 156.727 76.4976 156.972 76.6446 157.16C76.7915 157.348 76.9997 157.503 77.2691 157.625C77.5385 157.74 77.8609 157.842 78.2364 157.932L78.8732 158.091C79.3711 158.197 79.816 158.344 80.2079 158.532C80.6079 158.711 80.9263 158.96 81.163 159.278C81.3998 159.589 81.5181 159.997 81.5181 160.503C81.5181 161.009 81.3916 161.45 81.1385 161.825C80.8855 162.201 80.5263 162.495 80.061 162.707C79.6038 162.911 79.065 163.013 78.4446 163.013ZM86.9339 163.013C86.3135 163.013 85.7584 162.903 85.2686 162.683C84.7788 162.462 84.391 162.132 84.1053 161.691C83.8277 161.242 83.689 160.683 83.689 160.013V159.756H84.7053V160.013C84.7053 160.723 84.9135 161.254 85.3298 161.605C85.7461 161.948 86.2808 162.119 86.9339 162.119C87.6033 162.119 88.1135 161.968 88.4646 161.666C88.8156 161.364 88.9911 160.985 88.9911 160.527C88.9911 160.209 88.9095 159.956 88.7462 159.768C88.5911 159.581 88.3707 159.429 88.085 159.315C87.7992 159.193 87.4645 159.087 87.0809 158.997L86.4441 158.838C85.9461 158.707 85.5053 158.548 85.1216 158.36C84.738 158.172 84.4359 157.927 84.2155 157.625C84.0032 157.315 83.8971 156.919 83.8971 156.438C83.8971 155.956 84.0155 155.54 84.2522 155.189C84.4971 154.838 84.8359 154.568 85.2686 154.38C85.7094 154.193 86.2155 154.099 86.787 154.099C87.3666 154.099 87.8849 154.201 88.3421 154.405C88.8074 154.601 89.1707 154.895 89.4319 155.287C89.7013 155.67 89.836 156.156 89.836 156.744V157.258H88.8197V156.744C88.8197 156.327 88.7299 155.993 88.5503 155.74C88.3788 155.487 88.138 155.299 87.8278 155.176C87.5258 155.054 87.1788 154.993 86.787 154.993C86.2237 154.993 85.7706 155.119 85.4278 155.372C85.0849 155.617 84.9135 155.968 84.9135 156.425C84.9135 156.727 84.9869 156.972 85.1339 157.16C85.2808 157.348 85.489 157.503 85.7584 157.625C86.0278 157.74 86.3502 157.842 86.7257 157.932L87.3625 158.091C87.8605 158.197 88.3054 158.344 88.6972 158.532C89.0972 158.711 89.4156 158.96 89.6523 159.278C89.8891 159.589 90.0074 159.997 90.0074 160.503C90.0074 161.009 89.8809 161.45 89.6278 161.825C89.3748 162.201 89.0156 162.495 88.5503 162.707C88.0931 162.911 87.5543 163.013 86.9339 163.013ZM91.8608 162.842L94.5057 154.27H96.318L98.9629 162.842H97.8976L97.2364 160.674H93.5873L92.9261 162.842H91.8608ZM93.8445 159.744H96.967L95.4976 154.895H95.3261L93.8445 159.744ZM105.196 162.842V154.27H107.155L109.433 162.193H109.592L111.87 154.27H113.829V162.842H112.837V154.944H112.666L110.4 162.842H108.625L106.359 154.944H106.188V162.842H105.196ZM119.869 163.013C118.848 163.013 118.036 162.719 117.432 162.132C116.828 161.536 116.526 160.67 116.526 159.536V157.576C116.526 156.442 116.828 155.58 117.432 154.993C118.036 154.397 118.848 154.099 119.869 154.099C120.881 154.099 121.656 154.38 122.195 154.944C122.742 155.507 123.016 156.278 123.016 157.258V157.319H121.999V157.221C121.999 156.576 121.824 156.05 121.473 155.642C121.13 155.225 120.595 155.017 119.869 155.017C119.142 155.017 118.575 155.242 118.166 155.691C117.758 156.131 117.554 156.752 117.554 157.552V159.56C117.554 160.36 117.758 160.985 118.166 161.434C118.575 161.874 119.142 162.095 119.869 162.095C120.595 162.095 121.13 161.891 121.473 161.483C121.824 161.066 121.999 160.536 121.999 159.891V159.695H123.016V159.854C123.016 160.834 122.742 161.605 122.195 162.168C121.656 162.732 120.881 163.013 119.869 163.013ZM128.705 163.013C127.684 163.013 126.872 162.719 126.268 162.132C125.664 161.536 125.362 160.67 125.362 159.536V157.576C125.362 156.442 125.664 155.58 126.268 154.993C126.872 154.397 127.684 154.099 128.705 154.099C129.717 154.099 130.492 154.38 131.031 154.944C131.578 155.507 131.852 156.278 131.852 157.258V157.319H130.835V157.221C130.835 156.576 130.66 156.05 130.309 155.642C129.966 155.225 129.431 155.017 128.705 155.017C127.978 155.017 127.411 155.242 127.003 155.691C126.594 156.131 126.39 156.752 126.39 157.552V159.56C126.39 160.36 126.594 160.985 127.003 161.434C127.411 161.874 127.978 162.095 128.705 162.095C129.431 162.095 129.966 161.891 130.309 161.483C130.66 161.066 130.835 160.536 130.835 159.891V159.695H131.852V159.854C131.852 160.834 131.578 161.605 131.031 162.168C130.492 162.732 129.717 163.013 128.705 163.013ZM133.686 162.842L136.33 154.27H138.143L140.788 162.842H139.722L139.061 160.674H135.412L134.751 162.842H133.686ZM135.669 159.744H138.792L137.322 154.895H137.151L135.669 159.744ZM143.052 162.842V154.27H146.517C147.048 154.27 147.513 154.364 147.913 154.552C148.321 154.731 148.639 154.993 148.868 155.336C149.097 155.67 149.211 156.074 149.211 156.548V156.682C149.211 157.246 149.076 157.691 148.807 158.017C148.537 158.344 148.219 158.564 147.852 158.678V158.85C148.146 158.858 148.386 158.956 148.574 159.144C148.77 159.323 148.868 159.597 148.868 159.964V162.842H147.852V160.087C147.852 159.842 147.782 159.654 147.644 159.523C147.513 159.393 147.313 159.327 147.044 159.327H144.08V162.842H143.052ZM144.08 158.397H146.419C146.982 158.397 147.415 158.262 147.717 157.993C148.027 157.715 148.182 157.331 148.182 156.842V156.756C148.182 156.266 148.031 155.887 147.729 155.617C147.427 155.34 146.99 155.201 146.419 155.201H144.08V158.397ZM153.731 162.842V155.201H150.976V154.27H157.515V155.201H154.759V162.842H153.731ZM159.803 162.842V154.27H160.832V158.078H164.848V154.27H165.877V162.842H164.848V159.009H160.832V162.842H159.803ZM171.059 162.842V159.572L168.01 154.27H169.186L171.488 158.385H171.659L173.961 154.27H175.137L172.088 159.572V162.842H171.059Z" fill="white"/>
<defs>
<linearGradient id="paint0_linear_11_364" x1="293.883" y1="16.6184" x2="2.81044e-06" y2="187.175" gradientUnits="userSpaceOnUse">
<stop stop-color="#8933F5"/>
<stop offset="1" stop-color="#200767"/>
</linearGradient>
<linearGradient id="paint1_linear_11_364" x1="295.632" y1="16.6184" x2="1.74903" y2="187.175" gradientUnits="userSpaceOnUse">
<stop stop-color="#161616"/>
<stop offset="1" stop-color="#242424"/>
</linearGradient>
<linearGradient id="paint2_linear_11_364" x1="237.053" y1="90.1205" x2="4.37275" y2="180.179" gradientUnits="userSpaceOnUse">
<stop stop-color="#D5D5D5"/>
<stop offset="0.788762" stop-color="#818181" stop-opacity="0"/>
</linearGradient>
</defs>
</svg>
