<svg width="58" height="19" viewBox="0 0 58 19" fill="none" xmlns="http://www.w3.org/2000/svg">
<path d="M22.2451 0.940304L14.8022 18.7037H9.94604L6.2838 4.52569C6.06113 3.65363 5.86925 3.33372 5.19176 2.96641C4.08788 2.36687 2.26387 1.80525 0.660156 1.45453L0.769123 0.940304H8.58632C9.09716 0.939791 9.59135 1.12198 9.9797 1.45397C10.368 1.78597 10.625 2.24591 10.7041 2.75077L12.6394 13.0306L17.4198 0.940304H22.2451ZM41.2741 12.905C41.293 8.21534 34.7929 7.95704 34.8379 5.86221C34.8521 5.22475 35.4585 4.54702 36.7851 4.37403C38.3398 4.22632 39.9054 4.50142 41.3167 5.17025L42.1221 1.4024C40.7481 0.885669 39.2929 0.618439 37.825 0.613281C33.2839 0.613281 30.0884 3.03039 30.0599 6.48781C30.0315 9.04474 32.3411 10.4689 34.0822 11.322C35.8731 12.1917 36.4748 12.751 36.4653 13.5282C36.4535 14.7226 35.0393 15.2463 33.7174 15.2676C31.4078 15.3032 30.0694 14.6444 28.9987 14.1467L28.1672 18.0378C29.2403 18.5307 31.2207 18.962 33.2745 18.981C38.0998 18.981 41.2575 16.597 41.2741 12.905ZM53.2628 18.7037H57.5125L53.8053 0.940304H49.8825C49.4633 0.936418 49.0527 1.0586 48.7038 1.29099C48.3549 1.52339 48.0839 1.85529 47.9258 2.24365L41.0348 18.7037H45.8578L46.8172 16.0496H52.7109L53.2628 18.7037ZM48.139 12.4097L50.5552 5.73898L51.9481 12.4097H48.139ZM28.8092 0.940304L25.0119 18.7037H20.4164L24.2184 0.940304H28.8092Z" fill="white"/>
</svg>
