<svg width="18" height="19" viewBox="0 0 18 19" fill="none" xmlns="http://www.w3.org/2000/svg">
<path d="M12.0234 8.96875C12.3398 8.61719 12.8672 8.61719 13.2188 8.93359C13.5703 9.25 13.5703 9.77734 13.2539 10.1289L9.59766 14.0664C9.45703 14.2422 9.21094 14.3125 9 14.3125C8.75391 14.3125 8.50781 14.2422 8.36719 14.0664L4.71094 10.1289C4.39453 9.77734 4.39453 9.25 4.74609 8.93359C5.09766 8.61719 5.625 8.61719 5.94141 8.96875L8.15625 11.3242V5.3125C8.15625 4.85547 8.50781 4.46875 9 4.46875C9.45703 4.46875 9.84375 4.85547 9.84375 5.3125V11.3242L12.0234 8.96875ZM9 0.25C13.957 0.25 18 4.29297 18 9.25C18 14.2422 13.957 18.25 9 18.25C4.00781 18.25 0 14.2422 0 9.25C0 4.29297 4.00781 0.25 9 0.25ZM9 16.5625C13.0078 16.5625 16.3125 13.293 16.3125 9.25C16.3125 5.24219 13.0078 1.9375 9 1.9375C4.95703 1.9375 1.6875 5.24219 1.6875 9.25C1.6875 13.293 4.95703 16.5625 9 16.5625Z" fill="#C59BFA"/>
</svg>
