<svg width="314" height="192" viewBox="0 0 314 192" fill="none" xmlns="http://www.w3.org/2000/svg">
<rect width="314" height="191.549" rx="18.3677" fill="url(#paint0_linear_224_689)"/>
<mask id="mask0_224_689" style="mask-type:alpha" maskUnits="userSpaceOnUse" x="1" y="0" width="315" height="192">
<rect x="1.7489" width="314" height="191.549" rx="18.3677" fill="url(#paint1_linear_224_689)"/>
</mask>
<g mask="url(#mask0_224_689)">
<path d="M278.162 202.949C269.417 22.7711 -152.168 -76.9386 -119.806 102.366L-13.0981 192.454C34.1331 225.399 285.304 350.099 278.162 202.949Z" fill="url(#paint2_linear_224_689)" fill-opacity="0.1"/>
</g>
<path d="M40.5204 44.8092C39.3542 44.8092 38.4259 44.4733 37.7355 43.8016C37.0451 43.1205 36.6999 42.1316 36.6999 40.8348V38.5957C36.6999 37.2989 37.0451 36.3146 37.7355 35.6429C38.4259 34.9618 39.3542 34.6213 40.5204 34.6213C41.6772 34.6213 42.5636 34.9431 43.1793 35.5869C43.8044 36.2306 44.1169 37.1123 44.1169 38.2318V38.3018H42.9554V38.1898C42.9554 37.4528 42.7548 36.851 42.3536 36.3846C41.9618 35.9087 41.3507 35.6708 40.5204 35.6708C39.69 35.6708 39.0416 35.9274 38.5751 36.4405C38.1087 36.9443 37.8754 37.6534 37.8754 38.5677V40.8628C37.8754 41.7771 38.1087 42.4908 38.5751 43.0039C39.0416 43.5077 39.69 43.7596 40.5204 43.7596C41.3507 43.7596 41.9618 43.5264 42.3536 43.0599C42.7548 42.5841 42.9554 41.9777 42.9554 41.2406V41.0167H44.1169V41.1986C44.1169 42.3182 43.8044 43.1998 43.1793 43.8436C42.5636 44.4873 41.6772 44.8092 40.5204 44.8092ZM46.0006 44.6133V37.77H47.0782V38.6097H47.2741C47.3954 38.3111 47.582 38.0919 47.8339 37.9519C48.0858 37.812 48.417 37.742 48.8275 37.742H49.6392V38.7496H48.7575C48.263 38.7496 47.8619 38.8896 47.554 39.1694C47.2554 39.44 47.1062 39.8645 47.1062 40.4429V44.6133H46.0006ZM54.1646 44.8092C53.4742 44.8092 52.8678 44.6646 52.3453 44.3754C51.8229 44.0768 51.417 43.6617 51.1278 43.1299C50.8386 42.5981 50.694 41.9823 50.694 41.2826V41.1147C50.694 40.4056 50.8386 39.7852 51.1278 39.2534C51.417 38.7216 51.8182 38.3111 52.3313 38.0219C52.8445 37.7234 53.4322 37.5741 54.0946 37.5741C54.7384 37.5741 55.3075 37.714 55.802 37.9939C56.2964 38.2645 56.6836 38.6563 56.9635 39.1694C57.2434 39.6826 57.3833 40.2843 57.3833 40.9747V41.4785H51.7996C51.8275 42.2156 52.0654 42.794 52.5133 43.2138C52.9611 43.6243 53.5209 43.8296 54.1926 43.8296C54.7804 43.8296 55.2329 43.6943 55.5501 43.4238C55.8673 43.1532 56.1098 42.8313 56.2778 42.4581L57.2294 42.92C57.0894 43.2092 56.8935 43.4984 56.6416 43.7876C56.3991 44.0768 56.0772 44.3194 55.676 44.5153C55.2842 44.7112 54.7804 44.8092 54.1646 44.8092ZM51.8136 40.5689H56.2638C56.2265 39.9345 56.0072 39.44 55.606 39.0855C55.2142 38.731 54.7104 38.5537 54.0946 38.5537C53.4696 38.5537 52.9564 38.731 52.5553 39.0855C52.1541 39.44 51.9068 39.9345 51.8136 40.5689ZM62.2086 44.8092C61.6208 44.8092 61.0797 44.6693 60.5852 44.3894C60.0907 44.1095 59.6989 43.7036 59.4097 43.1719C59.1205 42.6401 58.9759 42.0103 58.9759 41.2826V41.1007C58.9759 40.373 59.1205 39.7479 59.4097 39.2254C59.6989 38.6936 60.0861 38.2878 60.5712 38.0079C61.0657 37.7187 61.6115 37.5741 62.2086 37.5741C62.6844 37.5741 63.0856 37.6394 63.4121 37.77C63.748 37.8913 64.0185 38.0499 64.2238 38.2458C64.429 38.4324 64.5876 38.633 64.6996 38.8476H64.8955V34.8172H66.0011V44.6133H64.9235V43.4797H64.7276C64.541 43.8249 64.2518 44.1328 63.8599 44.4034C63.4681 44.6739 62.9176 44.8092 62.2086 44.8092ZM62.5025 43.8296C63.2115 43.8296 63.7853 43.6057 64.2238 43.1579C64.6716 42.7007 64.8955 42.0663 64.8955 41.2546V41.1287C64.8955 40.317 64.6716 39.6872 64.2238 39.2394C63.7853 38.7823 63.2115 38.5537 62.5025 38.5537C61.8027 38.5537 61.2243 38.7823 60.7671 39.2394C60.3193 39.6872 60.0954 40.317 60.0954 41.1287V41.2546C60.0954 42.0663 60.3193 42.7007 60.7671 43.1579C61.2243 43.6057 61.8027 43.8296 62.5025 43.8296ZM68.3179 44.6133V37.77H69.4235V44.6133H68.3179ZM68.8777 36.7064C68.6351 36.7064 68.4299 36.6271 68.2619 36.4685C68.1033 36.3099 68.024 36.1093 68.024 35.8668C68.024 35.6149 68.1033 35.4096 68.2619 35.251C68.4299 35.0924 68.6351 35.0131 68.8777 35.0131C69.1202 35.0131 69.3208 35.0924 69.4794 35.251C69.638 35.4096 69.7173 35.6149 69.7173 35.8668C69.7173 36.1093 69.638 36.3099 69.4794 36.4685C69.3208 36.6271 69.1202 36.7064 68.8777 36.7064ZM74.2672 44.6133C73.8753 44.6133 73.5721 44.506 73.3575 44.2914C73.1523 44.0768 73.0497 43.7829 73.0497 43.4098V38.7356H70.9925V37.77H73.0497V35.335H74.1552V37.77H76.3943V38.7356H74.1552V43.2418C74.1552 43.5217 74.2905 43.6617 74.5611 43.6617H76.0864V44.6133H74.2672ZM81.1018 44.8092C80.4114 44.8092 79.8003 44.6646 79.2685 44.3754C78.7461 44.0862 78.3356 43.6803 78.037 43.1579C77.7478 42.6261 77.6032 42.001 77.6032 41.2826V41.1007C77.6032 40.3916 77.7478 39.7712 78.037 39.2394C78.3356 38.7076 78.7461 38.2971 79.2685 38.0079C79.8003 37.7187 80.4114 37.5741 81.1018 37.5741C81.7922 37.5741 82.3986 37.7187 82.9211 38.0079C83.4529 38.2971 83.8634 38.7076 84.1526 39.2394C84.4511 39.7712 84.6004 40.3916 84.6004 41.1007V41.2826C84.6004 42.001 84.4511 42.6261 84.1526 43.1579C83.8634 43.6803 83.4529 44.0862 82.9211 44.3754C82.3986 44.6646 81.7922 44.8092 81.1018 44.8092ZM81.1018 43.8156C81.8295 43.8156 82.408 43.587 82.8371 43.1299C83.2756 42.6634 83.4949 42.0383 83.4949 41.2546V41.1287C83.4949 40.345 83.2756 39.7246 82.8371 39.2674C82.408 38.8009 81.8295 38.5677 81.1018 38.5677C80.3834 38.5677 79.805 38.8009 79.3665 39.2674C78.928 39.7246 78.7088 40.345 78.7088 41.1287V41.2546C78.7088 42.0383 78.928 42.6634 79.3665 43.1299C79.805 43.587 80.3834 43.8156 81.1018 43.8156Z" fill="white"/>
<path d="M247.245 30.9403L239.802 48.7037H234.946L231.284 34.5257C231.061 33.6536 230.869 33.3337 230.192 32.9664C229.088 32.3669 227.264 31.8053 225.66 31.4545L225.769 30.9403H233.586C234.097 30.9398 234.591 31.122 234.98 31.454C235.368 31.786 235.625 32.2459 235.704 32.7508L237.639 43.0306L242.42 30.9403H247.245ZM266.274 42.905C266.293 38.2153 259.793 37.957 259.838 35.8622C259.852 35.2248 260.458 34.547 261.785 34.374C263.34 34.2263 264.905 34.5014 266.317 35.1703L267.122 31.4024C265.748 30.8857 264.293 30.6184 262.825 30.6133C258.284 30.6133 255.088 33.0304 255.06 36.4878C255.031 39.0447 257.341 40.4689 259.082 41.322C260.873 42.1917 261.475 42.751 261.465 43.5282C261.453 44.7226 260.039 45.2463 258.717 45.2676C256.408 45.3032 255.069 44.6444 253.999 44.1467L253.167 48.0378C254.24 48.5307 256.221 48.962 258.274 48.981C263.1 48.981 266.257 46.597 266.274 42.905ZM278.263 48.7037H282.512L278.805 30.9403H274.882C274.463 30.9364 274.053 31.0586 273.704 31.291C273.355 31.5234 273.084 31.8553 272.926 32.2436L266.035 48.7037H270.858L271.817 46.0496H277.711L278.263 48.7037ZM273.139 42.4097L275.555 35.739L276.948 42.4097H273.139ZM253.809 30.9403L250.012 48.7037H245.416L249.218 30.9403H253.809Z" fill="white"/>
<path d="M36.6002 122.739V121.889H37.9384L39.0247 122.031L39.1034 121.858L38.2218 121.196L37.2772 120.236L37.8754 119.654L38.8201 120.598L39.497 121.464L39.6702 121.385L39.5285 120.299V118.961H40.3787V120.299L40.237 121.385L40.4102 121.464L41.0871 120.598L42.0318 119.654L42.63 120.236L41.6854 121.196L40.8038 121.858L40.8825 122.031L41.9688 121.889H43.307V122.739H41.9688L40.8825 122.613L40.8038 122.771L41.6854 123.448L42.63 124.392L42.0318 124.991L41.0871 124.046L40.4102 123.164L40.237 123.243L40.3787 124.329V125.668H39.5285V124.329L39.6702 123.243L39.497 123.164L38.8201 124.046L37.8754 124.991L37.2772 124.392L38.2218 123.448L39.1034 122.771L39.0247 122.613L37.9384 122.739H36.6002ZM45.5667 122.739V121.889H46.9049L47.9913 122.031L48.07 121.858L47.1883 121.196L46.2437 120.236L46.842 119.654L47.7866 120.598L48.4636 121.464L48.6368 121.385L48.4951 120.299V118.961H49.3452V120.299L49.2035 121.385L49.3767 121.464L50.0537 120.598L50.9983 119.654L51.5966 120.236L50.652 121.196L49.7703 121.858L49.849 122.031L50.9353 121.889H52.2736V122.739H50.9353L49.849 122.613L49.7703 122.771L50.652 123.448L51.5966 124.392L50.9983 124.991L50.0537 124.046L49.3767 123.164L49.2035 123.243L49.3452 124.329V125.668H48.4951V124.329L48.6368 123.243L48.4636 123.164L47.7866 124.046L46.842 124.991L46.2437 124.392L47.1883 123.448L48.07 122.771L47.9913 122.613L46.9049 122.739H45.5667ZM54.5333 122.739V121.889H55.8715L56.9578 122.031L57.0365 121.858L56.1549 121.196L55.2103 120.236L55.8085 119.654L56.7531 120.598L57.4301 121.464L57.6033 121.385L57.4616 120.299V118.961H58.3118V120.299L58.1701 121.385L58.3433 121.464L59.0202 120.598L59.9649 119.654L60.5631 120.236L59.6185 121.196L58.7369 121.858L58.8156 122.031L59.9019 121.889H61.2401V122.739H59.9019L58.8156 122.613L58.7369 122.771L59.6185 123.448L60.5631 124.392L59.9649 124.991L59.0202 124.046L58.3433 123.164L58.1701 123.243L58.3118 124.329V125.668H57.4616V124.329L57.6033 123.243L57.4301 123.164L56.7531 124.046L55.8085 124.991L55.2103 124.392L56.1549 123.448L57.0365 122.771L56.9578 122.613L55.8715 122.739H54.5333ZM63.4998 122.739V121.889H64.838L65.9244 122.031L66.0031 121.858L65.1214 121.196L64.1768 120.236L64.7751 119.654L65.7197 120.598L66.3967 121.464L66.5699 121.385L66.4282 120.299V118.961H67.2783V120.299L67.1366 121.385L67.3098 121.464L67.9868 120.598L68.9314 119.654L69.5297 120.236L68.5851 121.196L67.7034 121.858L67.7821 122.031L68.8684 121.889H70.2067V122.739H68.8684L67.7821 122.613L67.7034 122.771L68.5851 123.448L69.5297 124.392L68.9314 124.991L67.9868 124.046L67.3098 123.164L67.1366 123.243L67.2783 124.329V125.668H66.4282V124.329L66.5699 123.243L66.3967 123.164L65.7197 124.046L64.7751 124.991L64.1768 124.392L65.1214 123.448L66.0031 122.771L65.9244 122.613L64.838 122.739H63.4998ZM86.9586 122.739V121.889H88.2968L89.3831 122.031L89.4619 121.858L88.5802 121.196L87.6356 120.236L88.2338 119.654L89.1785 120.598L89.8554 121.464L90.0286 121.385L89.8869 120.299V118.961H90.7371V120.299L90.5954 121.385L90.7686 121.464L91.4456 120.598L92.3902 119.654L92.9885 120.236L92.0438 121.196L91.1622 121.858L91.2409 122.031L92.3272 121.889H93.6654V122.739H92.3272L91.2409 122.613L91.1622 122.771L92.0438 123.448L92.9885 124.392L92.3902 124.991L91.4456 124.046L90.7686 123.164L90.5954 123.243L90.7371 124.329V125.668H89.8869V124.329L90.0286 123.243L89.8554 123.164L89.1785 124.046L88.2338 124.991L87.6356 124.392L88.5802 123.448L89.4619 122.771L89.3831 122.613L88.2968 122.739H86.9586ZM95.9251 122.739V121.889H97.2634L98.3497 122.031L98.4284 121.858L97.5468 121.196L96.6021 120.236L97.2004 119.654L98.145 120.598L98.822 121.464L98.9952 121.385L98.8535 120.299V118.961H99.7036V120.299L99.5619 121.385L99.7351 121.464L100.412 120.598L101.357 119.654L101.955 120.236L101.01 121.196L100.129 121.858L100.207 122.031L101.294 121.889H102.632V122.739H101.294L100.207 122.613L100.129 122.771L101.01 123.448L101.955 124.392L101.357 124.991L100.412 124.046L99.7351 123.164L99.5619 123.243L99.7036 124.329V125.668H98.8535V124.329L98.9952 123.243L98.822 123.164L98.145 124.046L97.2004 124.991L96.6021 124.392L97.5468 123.448L98.4284 122.771L98.3497 122.613L97.2634 122.739H95.9251ZM104.892 122.739V121.889H106.23L107.316 122.031L107.395 121.858L106.513 121.196L105.569 120.236L106.167 119.654L107.112 120.598L107.789 121.464L107.962 121.385L107.82 120.299V118.961H108.67V120.299L108.528 121.385L108.702 121.464L109.379 120.598L110.323 119.654L110.922 120.236L109.977 121.196L109.095 121.858L109.174 122.031L110.26 121.889H111.599V122.739H110.26L109.174 122.613L109.095 122.771L109.977 123.448L110.922 124.392L110.323 124.991L109.379 124.046L108.702 123.164L108.528 123.243L108.67 124.329V125.668H107.82V124.329L107.962 123.243L107.789 123.164L107.112 124.046L106.167 124.991L105.569 124.392L106.513 123.448L107.395 122.771L107.316 122.613L106.23 122.739H104.892ZM113.858 122.739V121.889H115.196L116.283 122.031L116.361 121.858L115.48 121.196L114.535 120.236L115.133 119.654L116.078 120.598L116.755 121.464L116.928 121.385L116.787 120.299V118.961H117.637V120.299L117.495 121.385L117.668 121.464L118.345 120.598L119.29 119.654L119.888 120.236L118.943 121.196L118.062 121.858L118.141 122.031L119.227 121.889H120.565V122.739H119.227L118.141 122.613L118.062 122.771L118.943 123.448L119.888 124.392L119.29 124.991L118.345 124.046L117.668 123.164L117.495 123.243L117.637 124.329V125.668H116.787V124.329L116.928 123.243L116.755 123.164L116.078 124.046L115.133 124.991L114.535 124.392L115.48 123.448L116.361 122.771L116.283 122.613L115.196 122.739H113.858ZM137.317 122.739V121.889H138.655L139.742 122.031L139.82 121.858L138.939 121.196L137.994 120.236L138.592 119.654L139.537 120.598L140.214 121.464L140.387 121.385L140.245 120.299V118.961H141.096V120.299L140.954 121.385L141.127 121.464L141.804 120.598L142.749 119.654L143.347 120.236L142.402 121.196L141.521 121.858L141.599 122.031L142.686 121.889H144.024V122.739H142.686L141.599 122.613L141.521 122.771L142.402 123.448L143.347 124.392L142.749 124.991L141.804 124.046L141.127 123.164L140.954 123.243L141.096 124.329V125.668H140.245V124.329L140.387 123.243L140.214 123.164L139.537 124.046L138.592 124.991L137.994 124.392L138.939 123.448L139.82 122.771L139.742 122.613L138.655 122.739H137.317ZM146.284 122.739V121.889H147.622L148.708 122.031L148.787 121.858L147.905 121.196L146.961 120.236L147.559 119.654L148.503 120.598L149.18 121.464L149.354 121.385L149.212 120.299V118.961H150.062V120.299L149.92 121.385L150.094 121.464L150.771 120.598L151.715 119.654L152.313 120.236L151.369 121.196L150.487 121.858L150.566 122.031L151.652 121.889H152.99V122.739H151.652L150.566 122.613L150.487 122.771L151.369 123.448L152.313 124.392L151.715 124.991L150.771 124.046L150.094 123.164L149.92 123.243L150.062 124.329V125.668H149.212V124.329L149.354 123.243L149.18 123.164L148.503 124.046L147.559 124.991L146.961 124.392L147.905 123.448L148.787 122.771L148.708 122.613L147.622 122.739H146.284ZM155.25 122.739V121.889H156.588L157.675 122.031L157.753 121.858L156.872 121.196L155.927 120.236L156.525 119.654L157.47 120.598L158.147 121.464L158.32 121.385L158.178 120.299V118.961H159.029V120.299L158.887 121.385L159.06 121.464L159.737 120.598L160.682 119.654L161.28 120.236L160.335 121.196L159.454 121.858L159.532 122.031L160.619 121.889H161.957V122.739H160.619L159.532 122.613L159.454 122.771L160.335 123.448L161.28 124.392L160.682 124.991L159.737 124.046L159.06 123.164L158.887 123.243L159.029 124.329V125.668H158.178V124.329L158.32 123.243L158.147 123.164L157.47 124.046L156.525 124.991L155.927 124.392L156.872 123.448L157.753 122.771L157.675 122.613L156.588 122.739H155.25ZM164.217 122.739V121.889H165.555L166.641 122.031L166.72 121.858L165.838 121.196L164.894 120.236L165.492 119.654L166.437 120.598L167.114 121.464L167.287 121.385L167.145 120.299V118.961H167.995V120.299L167.853 121.385L168.027 121.464L168.704 120.598L169.648 119.654L170.247 120.236L169.302 121.196L168.42 121.858L168.499 122.031L169.585 121.889H170.923V122.739H169.585L168.499 122.613L168.42 122.771L169.302 123.448L170.247 124.392L169.648 124.991L168.704 124.046L168.027 123.164L167.853 123.243L167.995 124.329V125.668H167.145V124.329L167.287 123.243L167.114 123.164L166.437 124.046L165.492 124.991L164.894 124.392L165.838 123.448L166.72 122.771L166.641 122.613L165.555 122.739H164.217ZM187.675 122.739V121.889H189.014L190.1 122.031L190.179 121.858L189.297 121.196L188.352 120.236L188.951 119.654L189.895 120.598L190.572 121.464L190.745 121.385L190.604 120.299V118.961H191.454V120.299L191.312 121.385L191.485 121.464L192.162 120.598L193.107 119.654L193.705 120.236L192.761 121.196L191.879 121.858L191.958 122.031L193.044 121.889H194.382V122.739H193.044L191.958 122.613L191.879 122.771L192.761 123.448L193.705 124.392L193.107 124.991L192.162 124.046L191.485 123.164L191.312 123.243L191.454 124.329V125.668H190.604V124.329L190.745 123.243L190.572 123.164L189.895 124.046L188.951 124.991L188.352 124.392L189.297 123.448L190.179 122.771L190.1 122.613L189.014 122.739H187.675ZM196.642 122.739V121.889H197.98L199.067 122.031L199.145 121.858L198.264 121.196L197.319 120.236L197.917 119.654L198.862 120.598L199.539 121.464L199.712 121.385L199.57 120.299V118.961H200.42V120.299L200.279 121.385L200.452 121.464L201.129 120.598L202.074 119.654L202.672 120.236L201.727 121.196L200.846 121.858L200.924 122.031L202.011 121.889H203.349V122.739H202.011L200.924 122.613L200.846 122.771L201.727 123.448L202.672 124.392L202.074 124.991L201.129 124.046L200.452 123.164L200.279 123.243L200.42 124.329V125.668H199.57V124.329L199.712 123.243L199.539 123.164L198.862 124.046L197.917 124.991L197.319 124.392L198.264 123.448L199.145 122.771L199.067 122.613L197.98 122.739H196.642ZM205.609 122.739V121.889H206.947L208.033 122.031L208.112 121.858L207.23 121.196L206.286 120.236L206.884 119.654L207.828 120.598L208.505 121.464L208.679 121.385L208.537 120.299V118.961H209.387V120.299L209.245 121.385L209.419 121.464L210.095 120.598L211.04 119.654L211.638 120.236L210.694 121.196L209.812 121.858L209.891 122.031L210.977 121.889H212.315V122.739H210.977L209.891 122.613L209.812 122.771L210.694 123.448L211.638 124.392L211.04 124.991L210.095 124.046L209.419 123.164L209.245 123.243L209.387 124.329V125.668H208.537V124.329L208.679 123.243L208.505 123.164L207.828 124.046L206.884 124.991L206.286 124.392L207.23 123.448L208.112 122.771L208.033 122.613L206.947 122.739H205.609ZM214.575 122.739V121.889H215.913L217 122.031L217.078 121.858L216.197 121.196L215.252 120.236L215.85 119.654L216.795 120.598L217.472 121.464L217.645 121.385L217.503 120.299V118.961H218.354V120.299L218.212 121.385L218.385 121.464L219.062 120.598L220.007 119.654L220.605 120.236L219.66 121.196L218.779 121.858L218.857 122.031L219.944 121.889H221.282V122.739H219.944L218.857 122.613L218.779 122.771L219.66 123.448L220.605 124.392L220.007 124.991L219.062 124.046L218.385 123.164L218.212 123.243L218.354 124.329V125.668H217.503V124.329L217.645 123.243L217.472 123.164L216.795 124.046L215.85 124.991L215.252 124.392L216.197 123.448L217.078 122.771L217 122.613L215.913 122.739H214.575Z" fill="white"/>
<defs>
<linearGradient id="paint0_linear_224_689" x1="293.883" y1="16.6184" x2="2.81044e-06" y2="187.175" gradientUnits="userSpaceOnUse">
<stop stop-color="#8933F5"/>
<stop offset="1" stop-color="#200767"/>
</linearGradient>
<linearGradient id="paint1_linear_224_689" x1="295.632" y1="16.6184" x2="1.7489" y2="187.175" gradientUnits="userSpaceOnUse">
<stop stop-color="#161616"/>
<stop offset="1" stop-color="#242424"/>
</linearGradient>
<linearGradient id="paint2_linear_224_689" x1="237.052" y1="90.1205" x2="4.37238" y2="180.179" gradientUnits="userSpaceOnUse">
<stop stop-color="#D5D5D5"/>
<stop offset="0.788762" stop-color="#818181" stop-opacity="0"/>
</linearGradient>
</defs>
</svg>
