<svg width="19" height="19" viewBox="0 0 19 19" fill="none" xmlns="http://www.w3.org/2000/svg">
<path d="M18.6484 3.24609C18.8594 3.45703 19 3.73828 19 4.05469V12C19 13.2656 17.9805 14.25 16.75 14.25H10C8.73438 14.25 7.75 13.2656 7.71484 12V3C7.71484 1.76953 8.69922 0.75 9.96484 0.75H15.6953C16.0117 0.75 16.293 0.890625 16.5039 1.10156L18.6484 3.24609ZM17.3125 12H17.2773V5.25H15.625C14.9922 5.25 14.5 4.75781 14.5 4.125L14.4648 2.47266H9.96484C9.64844 2.47266 9.40234 2.71875 9.40234 3.03516V12C9.40234 12.3164 9.64844 12.5625 9.96484 12.5625H16.75C17.0312 12.5625 17.3125 12.3164 17.3125 12ZM10.5625 16.5V15.375H12.25V16.5C12.25 17.7656 11.2305 18.75 10 18.75H3.25C1.98438 18.75 1 17.7656 1 16.5L0.964844 7.5C0.964844 6.26953 1.98438 5.25 3.21484 5.25H6.625V6.97266H3.21484C2.93359 6.97266 2.65234 7.21875 2.65234 7.53516V16.5C2.65234 16.8164 2.89844 17.0625 3.21484 17.0625H10C10.2812 17.0625 10.5625 16.8164 10.5625 16.5Z" fill="white"/>
</svg>
