<svg width="143" height="30" viewBox="0 0 143 30" fill="none" xmlns="http://www.w3.org/2000/svg">
<path d="M0 1.69002H6.64817V28.5767H0V1.69002Z" fill="white"/>
<path d="M9.67512 7.48986V1.69002H31.0884V7.48986H23.6286V28.5767H17.0963V7.48986H9.67512Z" fill="white"/>
<path d="M38.9173 15.2102V12.3679H43.285C44.0323 12.3679 44.6636 12.2527 45.1789 12.0222C45.7201 11.7917 46.1324 11.4717 46.4158 11.062C46.6993 10.6266 46.841 10.1017 46.841 9.48716C46.841 8.56533 46.5318 7.87396 45.9133 7.41305C45.2949 6.95213 44.4188 6.72167 43.285 6.72167H40.5793V23.5451H43.9034C44.7538 23.5451 45.5139 23.4426 46.1839 23.2378C46.8539 23.0073 47.3821 22.6488 47.7686 22.1623C48.1809 21.6502 48.3871 20.9588 48.3871 20.0882C48.3871 19.5249 48.2711 19.0383 48.0392 18.6286C47.8073 18.2189 47.4852 17.8861 47.0729 17.63C46.6606 17.3739 46.1839 17.1947 45.6428 17.0923C45.1274 16.9642 44.5476 16.9002 43.9034 16.9002H38.9173V13.3665H44.6378C45.952 13.3665 47.2275 13.5074 48.4644 13.789C49.7012 14.0707 50.8222 14.5316 51.8271 15.1718C52.8321 15.7863 53.6309 16.5801 54.2236 17.5532C54.842 18.5006 55.1512 19.6529 55.1512 21.01C55.1512 22.8025 54.7132 24.2492 53.837 25.3503C52.9867 26.4514 51.7756 27.2708 50.2037 27.8085C48.6319 28.3207 46.7766 28.5767 44.6378 28.5767H34.0471V1.69002H43.9807C45.8618 1.69002 47.511 1.94608 48.9282 2.45821C50.3712 2.94473 51.505 3.70012 52.3296 4.72438C53.1799 5.72302 53.6051 6.99054 53.6051 8.52692C53.6051 9.93527 53.1799 11.1388 52.3296 12.1374C51.505 13.1361 50.3712 13.9043 48.9282 14.442C47.511 14.9541 45.8618 15.2102 43.9807 15.2102H38.9173Z" fill="white"/>
<path d="M63.4001 23.3914L63.8639 18.4366H77.2762L77.7014 23.3914H63.4001ZM70.4735 11.5613L66.6856 20.2418L66.9948 21.663L63.632 28.5767H56.2495L70.4735 0L84.7361 28.5767H77.3149L74.0681 21.9319L74.3 20.2803L70.4735 11.5613Z" fill="white"/>
<path d="M106.797 1.69002H113.097V29.9211L94.3896 13.4433V28.5767H88.1279V0.345686L106.797 16.8234V1.69002Z" fill="white"/>
<path d="M117.929 1.69002H124.693V28.5767H117.929V1.69002ZM133.892 1.69002H141.545L130.568 14.2884L142.125 28.5767H134.201L122.799 14.4804L133.892 1.69002Z" fill="white"/>
</svg>
