<svg width="14" height="15" viewBox="0 0 14 15" fill="none" xmlns="http://www.w3.org/2000/svg">
<path d="M7.46484 3.53125L10.3086 6.59375C10.5547 6.86719 10.5547 7.27734 10.2812 7.52344C10.0078 7.76953 9.59766 7.76953 9.35156 7.49609L7.65625 5.66406V10.3125C7.65625 10.6953 7.35547 10.9688 7 10.9688C6.61719 10.9688 6.34375 10.6953 6.34375 10.3125V5.66406L4.62109 7.49609C4.375 7.76953 3.96484 7.76953 3.69141 7.52344C3.41797 7.27734 3.41797 6.86719 3.66406 6.59375L6.50781 3.53125C6.61719 3.39453 6.80859 3.3125 7 3.3125C7.16406 3.3125 7.35547 3.39453 7.46484 3.53125ZM7 0.25C10.8555 0.25 14 3.39453 14 7.25C14 11.1328 10.8555 14.25 7 14.25C3.11719 14.25 0 11.1328 0 7.25C0 3.39453 3.11719 0.25 7 0.25ZM7 12.9375C10.1172 12.9375 12.6875 10.3945 12.6875 7.25C12.6875 4.13281 10.1172 1.5625 7 1.5625C3.85547 1.5625 1.3125 4.13281 1.3125 7.25C1.3125 10.3945 3.85547 12.9375 7 12.9375Z" fill="#FF3131"/>
</svg>
