<svg width="30" height="26" viewBox="0 0 30 26" fill="none" xmlns="http://www.w3.org/2000/svg">
<path d="M26.1562 4L25.0781 2.92188C24.6094 2.5 24.6094 1.79688 25.0781 1.375C25.5 0.90625 26.2031 0.90625 26.625 1.375L29.625 4.375C29.8594 4.5625 30 4.84375 30 5.125C30 5.45312 29.8594 5.73438 29.625 5.92188L26.625 8.92188C26.2031 9.39062 25.5 9.39062 25.0781 8.92188C24.6094 8.5 24.6094 7.79688 25.0781 7.32812L26.1562 6.25H7.5V7C7.5 8.6875 6.14062 10 4.5 10H3.75V14.4062L1.5 16.6562V7C1.5 5.35938 2.8125 4 4.5 4H17.9531H18H26.1562ZM26.25 16V11.6406L28.5 9.39062V19C28.5 20.6875 27.1406 22 25.5 22H3.79688L4.875 23.0781C5.34375 23.5469 5.34375 24.25 4.875 24.6719C4.45312 25.1406 3.75 25.1406 3.32812 24.6719L0.328125 21.6719C0.09375 21.4844 0 21.2031 0 20.875C0 20.5938 0.09375 20.3125 0.328125 20.0781L3.32812 17.0781C3.75 16.6562 4.45312 16.6562 4.875 17.0781C5.34375 17.5469 5.34375 18.25 4.875 18.6719L3.79688 19.75H11.9531C12 19.75 12 19.75 12 19.75H22.5V19C22.5 17.3594 23.8125 16 25.5 16H26.25ZM10.5 13C10.5 10.5156 12.4688 8.5 15 8.5C17.4844 8.5 19.5 10.5156 19.5 13C19.5 15.4844 17.4844 17.5 15 17.5C12.4688 17.5 10.5 15.4844 10.5 13Z" fill="white"/>
</svg>
