<svg width="24" height="24" viewBox="0 0 24 24" fill="none" xmlns="http://www.w3.org/2000/svg">
<path d="M12.9375 6.9375C13.4062 6.98438 13.875 7.125 14.2969 7.26562C14.3906 7.26562 14.4844 7.3125 14.5781 7.3125C15.0938 7.5 15.4219 8.0625 15.2812 8.57812C15.1406 9.14062 14.5781 9.42188 14.0156 9.28125C13.9688 9.28125 13.875 9.23438 13.8281 9.23438C13.5 9.14062 13.1719 9.04688 12.8438 8.95312C12.1875 8.85938 11.4844 8.90625 10.9219 9.14062C10.4062 9.375 9.98438 9.9375 10.5469 10.3125C11.0156 10.5938 11.5781 10.7344 12.0938 10.875C12.2344 10.9219 12.3281 10.9688 12.4219 10.9688C13.1719 11.2031 14.1094 11.4375 14.8125 11.9531C15.7031 12.5625 16.125 13.5938 15.9375 14.6719C15.75 15.7031 15 16.4062 14.1562 16.7344C13.7812 16.9219 13.3594 17.0156 12.9375 17.0625V17.7656C12.9375 18.3281 12.5156 18.75 11.9531 18.75C11.3906 18.75 10.9219 18.3281 10.9219 17.7656V16.9219C10.2656 16.7812 9.5625 16.5938 8.90625 16.3594C8.39062 16.1719 8.10938 15.6094 8.29688 15.0938C8.4375 14.5312 9.04688 14.25 9.5625 14.4375C9.65625 14.4844 9.79688 14.5312 9.89062 14.5312C10.4531 14.7188 10.9688 14.9062 11.5312 15C12.3281 15.1406 12.9375 15.0469 13.3594 14.8594C13.9219 14.6719 14.2031 13.9688 13.6406 13.5938C13.1719 13.2656 12.6094 13.125 12.0469 12.9844C11.9062 12.9375 11.8125 12.9375 11.7188 12.8906C11.0156 12.7031 10.125 12.4219 9.46875 12C8.53125 11.4375 8.0625 10.4531 8.29688 9.375C8.48438 8.34375 9.28125 7.6875 10.125 7.3125C10.3594 7.17188 10.6406 7.125 10.9219 7.03125V6.28125C10.9219 5.71875 11.3906 5.25 11.9531 5.25C12.5156 5.25 12.9375 5.71875 12.9375 6.28125V6.9375ZM24 12C24 18.6562 18.6094 24 12 24C5.34375 24 0 18.6562 0 12C0 5.39062 5.34375 0 12 0C18.6094 0 24 5.39062 24 12ZM12 2.25C6.60938 2.25 2.25 6.65625 2.25 12C2.25 17.3906 6.60938 21.75 12 21.75C17.3438 21.75 21.75 17.3906 21.75 12C21.75 6.65625 17.3438 2.25 12 2.25Z" fill="white"/>
</svg>
