<svg width="25" height="22" viewBox="0 0 25 22" fill="none" xmlns="http://www.w3.org/2000/svg">
<path d="M9 20.375C9 21.0312 8.48438 21.5 7.875 21.5H4.5C1.96875 21.5 0 19.5312 0 17V5C0 2.51562 1.96875 0.5 4.5 0.5H7.875C8.48438 0.5 9 1.01562 9 1.625C9 2.28125 8.48438 2.75 7.875 2.75H4.5C3.23438 2.75 2.25 3.78125 2.25 5V17C2.25 18.2656 3.23438 19.25 4.5 19.25H7.875C8.48438 19.25 9 19.7656 9 20.375ZM23.6719 10.25L17.7188 3.875C17.2969 3.40625 16.5938 3.40625 16.125 3.82812C15.6562 4.25 15.6562 4.95312 16.0781 5.42188L20.25 9.875H8.57812C7.96875 9.875 7.5 10.3906 7.5 11C7.5 11.6562 7.96875 12.125 8.57812 12.125H20.2031L15.9844 16.625C15.5625 17.0938 15.5625 17.7969 16.0312 18.2188C16.3125 18.4062 16.5938 18.5 16.8281 18.5C17.1094 18.5 17.3906 18.4062 17.625 18.1719L23.5781 11.7969C24.0938 11.375 24.0938 10.6719 23.6719 10.25Z" fill="white"/>
</svg>
