<svg width="14" height="15" viewBox="0 0 14 15" fill="none" xmlns="http://www.w3.org/2000/svg">
<path d="M9.35156 7.03125C9.59766 6.75781 10.0078 6.75781 10.2812 7.00391C10.5547 7.25 10.5547 7.66016 10.3086 7.93359L7.46484 10.9961C7.35547 11.1328 7.16406 11.1875 7 11.1875C6.80859 11.1875 6.61719 11.1328 6.50781 10.9961L3.66406 7.93359C3.41797 7.66016 3.41797 7.25 3.69141 7.00391C3.96484 6.75781 4.375 6.75781 4.62109 7.03125L6.34375 8.86328V4.1875C6.34375 3.83203 6.61719 3.53125 7 3.53125C7.35547 3.53125 7.65625 3.83203 7.65625 4.1875V8.86328L9.35156 7.03125ZM7 0.25C10.8555 0.25 14 3.39453 14 7.25C14 11.1328 10.8555 14.25 7 14.25C3.11719 14.25 0 11.1328 0 7.25C0 3.39453 3.11719 0.25 7 0.25ZM7 12.9375C10.1172 12.9375 12.6875 10.3945 12.6875 7.25C12.6875 4.13281 10.1172 1.5625 7 1.5625C3.85547 1.5625 1.3125 4.13281 1.3125 7.25C1.3125 10.3945 3.85547 12.9375 7 12.9375Z" fill="#7ED957"/>
</svg>
