<svg width="25" height="29" viewBox="0 0 25 29" fill="none" xmlns="http://www.w3.org/2000/svg">
<path d="M14.25 2.25V3.23438C18.1875 3.89062 21.25 7.33594 21.25 11.4375V13.2969C21.25 15.7578 22.0703 18.1641 23.6016 20.1328L24.4219 21.1172C24.75 21.5547 24.8047 22.1016 24.5859 22.5391C24.3672 22.9766 23.9297 23.25 23.4375 23.25H1.5625C1.01562 23.25 0.578125 22.9766 0.359375 22.5391C0.140625 22.1016 0.195312 21.5547 0.523438 21.1172L1.34375 20.1328C2.875 18.1641 3.75 15.7578 3.75 13.2969V11.4375C3.75 7.33594 6.75781 3.89062 10.75 3.23438V2.25C10.75 1.32031 11.5156 0.5 12.5 0.5C13.4297 0.5 14.25 1.32031 14.25 2.25ZM12.0625 5.75C8.89062 5.75 6.375 8.32031 6.375 11.4375V13.2969C6.375 15.9219 5.60938 18.4375 4.1875 20.625H20.7578C19.3359 18.4375 18.625 15.9219 18.625 13.2969V11.4375C18.625 8.32031 16.0547 5.75 12.9375 5.75H12.0625ZM16 25C16 25.9297 15.6172 26.8594 14.9609 27.5156C14.3047 28.1719 13.375 28.5 12.5 28.5C11.5703 28.5 10.6406 28.1719 9.98438 27.5156C9.32812 26.8594 9 25.9297 9 25H16Z" fill="white"/>
</svg>
