<svg width="24" height="24" viewBox="0 0 24 24" fill="none" xmlns="http://www.w3.org/2000/svg">
<path d="M12 0C18.6094 0 24 5.39062 24 12C24 18.6562 18.6094 24 12 24C5.34375 24 0 18.6562 0 12C0 5.39062 5.34375 0 12 0ZM12 21.75C17.3438 21.75 21.75 17.3906 21.75 12C21.75 6.65625 17.3438 2.25 12 2.25C6.60938 2.25 2.25 6.65625 2.25 12C2.25 17.3906 6.60938 21.75 12 21.75ZM12 15.75C12.7969 15.75 13.5 16.4062 13.5 17.25C13.5 18.0938 12.7969 18.75 12 18.75C11.1094 18.75 10.5 18.0938 10.5 17.25C10.5 16.4062 11.1562 15.75 12 15.75ZM13.5469 6C15.4219 6 16.875 7.45312 16.8281 9.28125C16.8281 10.4062 16.2188 11.4844 15.2344 12.0938L13.125 13.4062V13.5C13.125 14.1094 12.6094 14.625 12 14.625C11.3906 14.625 10.875 14.1094 10.875 13.5V12.75C10.875 12.375 11.0625 12 11.4375 11.7656L14.1094 10.1719C14.4375 9.98438 14.625 9.65625 14.625 9.28125C14.625 8.71875 14.1094 8.25 13.5 8.25H11.1094C10.5469 8.25 10.125 8.71875 10.125 9.28125C10.125 9.89062 9.60938 10.4062 9 10.4062C8.39062 10.4062 7.875 9.89062 7.875 9.28125C7.875 7.45312 9.32812 6 11.1562 6H13.5469Z" fill="white"/>
</svg>
